<svg xmlns="http://www.w3.org/2000/svg" viewBox="0 0 607 243.99"><defs><style>.cls-1{fill:#fff;}.cls-2{fill:#93d3cd;}.cls-3{fill:#b0ded9;}.cls-4{fill:#c7e7e3;}.cls-5{fill:#def1ed;}.cls-6{fill:#b3dfda;}.cls-7{fill:#daefec;}.cls-8{fill:#b1dfd9;}.cls-9{fill:#ceeae6;}.cls-10{fill:#afded8;}.cls-11{fill:#a4dad4;}.cls-12{fill:#d7eeea;}.cls-13{fill:#e5f4f1;}.cls-14{fill:#d9efeb;}.cls-15{fill:#daefeb;}.cls-16{fill:#dcf0ed;}.cls-17{fill:#d6edea;}.cls-18{fill:#e7f4f2;}.cls-19{fill:#bce3de;}.cls-20{fill:#b9e2dd;}.cls-21{fill:#d6eeea;}.cls-22{fill:#b8e1dc;}.cls-23{fill:#d1ebe8;}.cls-24{fill:#b4e0da;}.cls-25{fill:#d5ede9;}.cls-26{fill:#bae2dd;}.cls-27{fill:#e2f2ef;}.cls-28,.cls-29,.cls-30,.cls-38{fill:#92d4cd;stroke:#92d4cd;}.cls-28{stroke-linecap:round;stroke-width:6px;}.cls-28,.cls-29,.cls-30,.cls-31,.cls-32,.cls-33,.cls-38{stroke-miterlimit:10;}.cls-29,.cls-30,.cls-32,.cls-33,.cls-38{stroke-linecap:square;}.cls-29{stroke-width:7.5px;}.cls-30{stroke-width:6.71px;}.cls-31,.cls-32,.cls-33{fill:none;stroke:#000;}.cls-31,.cls-32{stroke-width:7.39px;}.cls-33{stroke-width:6.88px;}.cls-34{font-size:56.7px;fill:#231f20;font-family:MyriadPro-Light, Myriad Pro;}.cls-34,.cls-38{font-weight:300;}.cls-35{letter-spacing:-0.03em;}.cls-36{letter-spacing:0.03em;}.cls-37{letter-spacing:0.01em;}.cls-38{font-size:71.28px;stroke-width:2.25px;font-family:MyriadPro-LightSemiExt, Myriad Pro;}.cls-39{letter-spacing:0em;}.cls-40{letter-spacing:-0.01em;}</style></defs><g id="Layer_2" data-name="Layer 2"><g id="b_w_logo" data-name="b/w logo"><path class="cls-1" d="M446.49,84.94q-48.64,0-97.3,0c-.9,0-1.1-.2-1.1-1.1q0-41.45,0-82.88c0-.82.16-1,1-1Q446.5,0,543.91,0c.82,0,1,.16,1,1q0,41.51,0,83c0,.82-.16,1-1,1Q495.19,84.92,446.49,84.94Z"/><path class="cls-2" d="M522.32,67q-3.42,7.64-6.81,15.29c-.34.75-.71,1.08-1.53.62a4.78,4.78,0,0,0-1.26-.34,1.65,1.65,0,0,0-1.23-.35,3.09,3.09,0,0,1-.94-.33,137.84,137.84,0,0,0-15.05-3.46c-3-.48-5.93-1.1-8.94-1.39-1.65-.46-3.38-.37-5.06-.67-3.89-.32-7.77-.65-11.66-.94-.75-.06-.63-.68-.68-1.07a37,37,0,0,0-1.29-6.07A33.31,33.31,0,0,0,457.6,52.67,33.4,33.4,0,0,0,402.82,74.1c-.12.91-.45,1.29-1.44,1.24-4.73-.21-9.45-.65-14.18-.88-3.71-.18-7.36-.77-11.05-1.1-2.44-.21-4.86-.79-7.28-1.2-4.08-.7-8.1-1.61-12.12-2.59-.81-.19-1.6-.48-2.4-.72-.43-.33-1-.27-1.45-.46a30.19,30.19,0,0,1-3.19-.88c-.64-.26-.57-.52-.4-1,.41-1,.83-2,1.27-2.93a2.55,2.55,0,0,0,.42-1.22c.26-.39.45-.81.68-1.22l.27-.72a5.69,5.69,0,0,1,.47-1l0-.23c.29-.37.38-.85.67-1.23a16.66,16.66,0,0,1,1.3-3,3.38,3.38,0,0,0,.44-1.22,8.31,8.31,0,0,0,.44-.76q3.31-7.38,6.63-14.75c.23-.5.39-1,.58-1.56a5.33,5.33,0,0,1,.47-1c1.91-4.36,3.8-8.72,5.74-13.07,1.8-4,3.66-8.07,5.49-12.1a1.84,1.84,0,0,0,.07-.47c.26-.4.44-.83.68-1.23l2.91-6.7c.8-.78,1.44.13,2.16.21l.23.05a1.53,1.53,0,0,0,1,.34c.36,0,.61.19.9.32,3,.77,6.07,1.62,9.13,2.28,3.25.71,6.54,1.24,9.81,1.85.86.28,1.78.22,2.65.45,4.08.42,8.14.93,12.23,1.3,7.28.66,14.56.76,21.86.93,3.47.08,6.95.24,10.41.1,6-.25,12,.07,18-.26,3.51-.19,7-.24,10.51-.24,3.94,0,7.9.06,11.85.12,2.54,0,5.07.19,7.61.26,3,.08,5.95.4,8.93.58,2.67.15,5.32.49,8,.76,3.68.36,7.34.9,11,1.56,3,.56,6.1,1.11,9.11,1.85a14.32,14.32,0,0,0,3.48.75c.49.44,1.23.22,1.72.66l.46.06c.61.33,1.32.39,1.94.68l1.42.27a12.63,12.63,0,0,1,1.22.44c.93.12.55.73.37,1.15-1.08,2.49-2.21,5-3.31,7.45-.4.89-.77,1.79-1.16,2.69-.24.28-.24.68-.47,1s-.21.84-.48,1.2-.25.67-.47,1h0a3.62,3.62,0,0,0-.47,1q-3.48,7.78-7,15.59c-.3.45-.35,1-.7,1.45a37.34,37.34,0,0,1-2.4,5.51c-.2.3-.25.68-.47,1-.19,1.12-1,2-1.22,3.1-.25.27-.25.68-.47,1h0a3.72,3.72,0,0,0-.47,1l-.28.71c-.29.37-.4.84-.66,1.24l-.27,1.15a5.83,5.83,0,0,0-.48,1l-.24.48C522.55,66.26,522.55,66.66,522.32,67Z"/><path class="cls-3" d="M481.5,76.32a12.08,12.08,0,0,1,5.06.67C484.87,76.78,483.14,76.92,481.5,76.32Z"/><path class="cls-4" d="M403.78,7.69a4.14,4.14,0,0,1-2.65-.45A4.5,4.5,0,0,1,403.78,7.69Z"/><path class="cls-5" d="M380,2.4c-.74.16-1.39-.71-2.16-.21Q378.64,1.29,380,2.4Z"/><path class="cls-6" d="M540.8,16.8c-.68-.14-1.44,0-1.94-.68A3.1,3.1,0,0,1,540.8,16.8Z"/><path class="cls-7" d="M538.4,16.06c-.59-.17-1.29,0-1.72-.66C537.24,15.65,538,15.32,538.4,16.06Z"/><path class="cls-8" d="M529.76,49.93c.14-.53.13-1.13.7-1.45A1.61,1.61,0,0,1,529.76,49.93Z"/><path class="cls-9" d="M353.12,58.05a1.48,1.48,0,0,1-.67,1.23C352.57,58.82,352.51,58.25,353.12,58.05Z"/><path class="cls-10" d="M523.77,63.38c.11-.48.05-1,.66-1.24A1.54,1.54,0,0,1,523.77,63.38Z"/><path class="cls-11" d="M352.9,68.39c.52,0,1.12-.18,1.45.46A2.17,2.17,0,0,1,352.9,68.39Z"/><path class="cls-12" d="M375,8.89a1.5,1.5,0,0,1-.68,1.22A1.48,1.48,0,0,1,375,8.89Z"/><path class="cls-4" d="M543.44,17.51a1.34,1.34,0,0,1-1.22-.44C542.69,17,543.16,17,543.44,17.51Z"/><path class="cls-13" d="M351.68,61.19a1.51,1.51,0,0,1-.68,1.22A1.5,1.5,0,0,1,351.68,61.19Z"/><path class="cls-14" d="M538.87,29.77a.87.87,0,0,1,.47-1A.84.84,0,0,1,538.87,29.77Z"/><path class="cls-15" d="M537.92,31.93a.84.84,0,0,1,.47-1A.85.85,0,0,1,537.92,31.93Z"/><path class="cls-16" d="M525.2,60.47a.85.85,0,0,1,.47-1A.85.85,0,0,1,525.2,60.47Z"/><path class="cls-17" d="M522.32,67a.87.87,0,0,1,.46-1A.84.84,0,0,1,522.32,67Z"/><path class="cls-18" d="M510.55,81.84a1.45,1.45,0,0,1,1,.22c.07,0,.1.09.08.15s-.05.08-.07.08A.86.86,0,0,1,510.55,81.84Z"/><path class="cls-19" d="M511.53,82.29a1.85,1.85,0,0,1,0-.23c.46,0,.94-.07,1.2.46Z"/><path class="cls-20" d="M381.23,2.89a.85.85,0,0,1-1-.44l1,.22c.08.05.11.09.08.14S381.26,2.89,381.23,2.89Z"/><path class="cls-21" d="M381.23,2.89V2.67a.87.87,0,0,1,1,.44Z"/><path class="cls-22" d="M537.43,32.89a.86.86,0,0,1,.47-1A1.23,1.23,0,0,1,537.43,32.89Z"/><path class="cls-12" d="M363,35.76a1.23,1.23,0,0,1-.47,1A.85.85,0,0,1,363,35.76Z"/><path class="cls-23" d="M355.3,53c0,.35,0,.68-.44.76A.68.68,0,0,1,355.3,53Z"/><path class="cls-24" d="M526.89,56.41a1.12,1.12,0,0,1,.47-1A.93.93,0,0,1,526.89,56.41Z"/><path class="cls-25" d="M352.42,59.51a1.21,1.21,0,0,1-.47,1A.85.85,0,0,1,352.42,59.51Z"/><path class="cls-26" d="M524.71,61.43a.85.85,0,0,1,.47-1A1.21,1.21,0,0,1,524.71,61.43Z"/><path class="cls-27" d="M523,65.5a.93.93,0,0,1,.48-1A1.16,1.16,0,0,1,523,65.5Z"/><line class="cls-28" x1="476.56" y1="185.68" x2="462.01" y2="218.05"/><line class="cls-28" x1="551.04" y1="20.07" x2="509.32" y2="112.84"/><line class="cls-29" x1="422.05" y1="218.74" x2="567" y2="226.88"/><line class="cls-30" x1="545.23" y1="239.69" x2="540.6" y2="226.88"/><path class="cls-31" d="M477.56,93.47c-11.61,18.2-5.48,42.87,13.68,55.09s44.11,7.38,55.72-10.82Z"/><path class="cls-31" d="M533.77,162.28a59.28,59.28,0,0,1-106.63-39.37c.12-1.8.32-3.57.59-5.31"/><circle cx="446.95" cy="78.67" r="5.5"/><circle class="cls-31" cx="436.46" cy="78.05" r="32.65" transform="translate(106.34 374.04) rotate(-52.02)"/><line class="cls-32" x1="471.68" y1="78.05" x2="485.95" y2="78.05"/><line class="cls-31" x1="530.72" y1="163.64" x2="607" y2="163.64"/><line class="cls-33" x1="465.81" y1="186.77" x2="452.58" y2="216.15"/><line class="cls-33" x1="485.57" y1="188.68" x2="472.34" y2="218.06"/><text class="cls-34" transform="translate(35.2 141.11)">Hannah <tspan class="cls-35" x="190.79" y="0">F</tspan><tspan x="215.06" y="0">oga</tspan><tspan class="cls-36" x="301.81" y="0">r</tspan><tspan class="cls-37" x="320" y="0">t</tspan><tspan x="338.15" y="0">y</tspan></text><text class="cls-38" transform="translate(191.36 203.57)"><tspan class="cls-39">D</tspan><tspan x="51.96" y="0">esi</tspan><tspan class="cls-40" x="135.35" y="0">g</tspan><tspan x="177.55" y="0">n</tspan></text></g></g></svg>