<svg xmlns="http://www.w3.org/2000/svg" viewBox="0 0 567.15 243.99"><defs><style>.cls-1{fill:#fff;}.cls-2{fill:#93d3cd;}.cls-3{fill:#b0ded9;}.cls-4{fill:#c7e7e3;}.cls-5{fill:#def1ed;}.cls-6{fill:#b3dfda;}.cls-7{fill:#daefec;}.cls-8{fill:#b1dfd9;}.cls-9{fill:#ceeae6;}.cls-10{fill:#afded8;}.cls-11{fill:#a4dad4;}.cls-12{fill:#d7eeea;}.cls-13{fill:#e5f4f1;}.cls-14{fill:#d9efeb;}.cls-15{fill:#daefeb;}.cls-16{fill:#dcf0ed;}.cls-17{fill:#d6edea;}.cls-18{fill:#e7f4f2;}.cls-19{fill:#bce3de;}.cls-20{fill:#b9e2dd;}.cls-21{fill:#d6eeea;}.cls-22{fill:#b8e1dc;}.cls-23{fill:#d1ebe8;}.cls-24{fill:#b4e0da;}.cls-25{fill:#d5ede9;}.cls-26{fill:#bae2dd;}.cls-27{fill:#e2f2ef;}.cls-28,.cls-29,.cls-30,.cls-35{fill:#92d4cd;stroke:#92d4cd;}.cls-28{stroke-linecap:round;stroke-width:6px;}.cls-28,.cls-29,.cls-30,.cls-31,.cls-32,.cls-33,.cls-35{stroke-miterlimit:10;}.cls-29,.cls-30,.cls-32,.cls-33,.cls-35{stroke-linecap:square;}.cls-29{stroke-width:7.5px;}.cls-30{stroke-width:6.71px;}.cls-31,.cls-32,.cls-33{fill:none;stroke:#000;}.cls-31,.cls-32{stroke-width:7.39px;}.cls-33{stroke-width:6.88px;}.cls-34{fill:#231f20;}.cls-35{stroke-width:2.25px;}</style></defs><g id="Layer_2" data-name="Layer 2"><g id="b_w_logo" data-name="b/w logo"><path class="cls-1" d="M406.64,84.94q-48.64,0-97.3,0c-.9,0-1.1-.2-1.1-1.1q0-41.45,0-82.88c0-.82.16-1,1-1q97.42,0,194.84,0c.82,0,1,.16,1,1q0,41.51,0,83c0,.82-.16,1-1,1Q455.35,84.92,406.64,84.94Z"/><path class="cls-2" d="M482.47,67q-3.41,7.64-6.81,15.29c-.33.75-.71,1.08-1.53.62a4.68,4.68,0,0,0-1.26-.34,1.65,1.65,0,0,0-1.23-.35,3,3,0,0,1-.93-.33,138.92,138.92,0,0,0-15-3.46c-3-.48-5.94-1.1-9-1.39-1.65-.46-3.38-.37-5.06-.67-3.88-.32-7.77-.65-11.66-.94-.75-.06-.63-.68-.68-1.07A35.07,35.07,0,0,0,428,68.24a33.31,33.31,0,0,0-10.27-15.57A33.4,33.4,0,0,0,363,74.1c-.12.91-.45,1.29-1.44,1.24-4.73-.21-9.45-.65-14.17-.88-3.71-.18-7.37-.77-11.05-1.1-2.45-.21-4.86-.79-7.29-1.2-4.07-.7-8.1-1.61-12.11-2.59-.82-.19-1.61-.48-2.41-.72-.43-.33-1-.27-1.45-.46a30.19,30.19,0,0,1-3.19-.88c-.64-.26-.57-.52-.39-1,.4-1,.82-2,1.26-2.93a2.56,2.56,0,0,0,.43-1.22c.25-.39.44-.81.67-1.22l.27-.72a5.69,5.69,0,0,1,.47-1l0-.23c.29-.37.39-.85.68-1.23a16,16,0,0,1,1.29-3,3.6,3.6,0,0,0,.45-1.22c.18-.23.27-.52.43-.76q3.32-7.38,6.63-14.75c.23-.5.39-1,.58-1.56a7.1,7.1,0,0,1,.47-1c1.91-4.36,3.8-8.72,5.74-13.07,1.81-4,3.67-8.07,5.49-12.1a1.49,1.49,0,0,0,.07-.47c.26-.4.45-.83.68-1.23L338,2.19c.8-.78,1.44.13,2.16.21l.23.05a1.54,1.54,0,0,0,1,.34c.36,0,.61.19.9.32,3.05.77,6.07,1.62,9.13,2.28,3.25.71,6.54,1.24,9.81,1.85.86.28,1.79.22,2.66.45,4.07.42,8.13.93,12.22,1.3,7.28.66,14.57.76,21.86.93,3.47.08,7,.24,10.41.1,6-.25,12,.07,18-.26,3.51-.19,7-.24,10.51-.24,3.94,0,7.9.06,11.85.12,2.54,0,5.07.19,7.61.26,3,.08,6,.4,8.94.58,2.66.15,5.31.49,8,.76,3.69.36,7.34.9,11,1.56,3.05.56,6.1,1.11,9.11,1.85a14.32,14.32,0,0,0,3.48.75c.49.44,1.23.22,1.73.66l.46.06c.6.33,1.31.39,1.94.68l1.41.27a12.63,12.63,0,0,1,1.22.44c.93.12.55.73.37,1.15-1.08,2.49-2.2,5-3.31,7.45-.39.89-.77,1.79-1.16,2.69-.24.28-.24.68-.47,1s-.21.84-.48,1.2-.25.67-.47,1h0a4,4,0,0,0-.47,1q-3.48,7.78-7,15.59c-.3.45-.35,1-.7,1.45a37.34,37.34,0,0,1-2.4,5.51,9.6,9.6,0,0,1-.47,1c-.19,1.12-1,2-1.22,3.1-.25.27-.25.68-.47,1h0a3.4,3.4,0,0,0-.46,1l-.29.71c-.29.37-.4.84-.66,1.24l-.27,1.15a5.83,5.83,0,0,0-.48,1l-.24.48C482.7,66.26,482.7,66.66,482.47,67Z"/><path class="cls-3" d="M441.65,76.32a12.08,12.08,0,0,1,5.06.67C445,76.78,443.29,76.92,441.65,76.32Z"/><path class="cls-4" d="M363.94,7.69a4.16,4.16,0,0,1-2.66-.45A4.53,4.53,0,0,1,363.94,7.69Z"/><path class="cls-5" d="M340.18,2.4c-.74.16-1.38-.71-2.16-.21Q338.79,1.29,340.18,2.4Z"/><path class="cls-6" d="M501,16.8c-.68-.14-1.45,0-1.94-.68A3.12,3.12,0,0,1,501,16.8Z"/><path class="cls-7" d="M498.56,16.06c-.6-.17-1.3,0-1.73-.66C497.39,15.65,498.18,15.32,498.56,16.06Z"/><path class="cls-8" d="M489.91,49.93c.14-.53.13-1.13.7-1.45A1.61,1.61,0,0,1,489.91,49.93Z"/><path class="cls-9" d="M313.28,58.05a1.51,1.51,0,0,1-.68,1.23C312.72,58.82,312.66,58.25,313.28,58.05Z"/><path class="cls-10" d="M483.92,63.38c.11-.48.05-1,.66-1.24A1.51,1.51,0,0,1,483.92,63.38Z"/><path class="cls-11" d="M313.05,68.39c.52,0,1.12-.18,1.45.46A2.17,2.17,0,0,1,313.05,68.39Z"/><path class="cls-12" d="M335.11,8.89a1.47,1.47,0,0,1-.68,1.22A1.51,1.51,0,0,1,335.11,8.89Z"/><path class="cls-4" d="M503.59,17.51a1.34,1.34,0,0,1-1.22-.44C502.84,17,503.31,17,503.59,17.51Z"/><path class="cls-13" d="M311.83,61.19a1.5,1.5,0,0,1-.67,1.22A1.46,1.46,0,0,1,311.83,61.19Z"/><path class="cls-14" d="M499,29.77a.88.88,0,0,1,.47-1A.84.84,0,0,1,499,29.77Z"/><path class="cls-15" d="M498.07,31.93a.84.84,0,0,1,.47-1A.85.85,0,0,1,498.07,31.93Z"/><path class="cls-16" d="M485.35,60.47a.86.86,0,0,1,.47-1A.86.86,0,0,1,485.35,60.47Z"/><path class="cls-17" d="M482.47,67a.87.87,0,0,1,.46-1A.82.82,0,0,1,482.47,67Z"/><path class="cls-18" d="M470.71,81.84a1.42,1.42,0,0,1,1,.22c.07,0,.1.09.08.15s-.05.08-.07.08A.84.84,0,0,1,470.71,81.84Z"/><path class="cls-19" d="M471.68,82.29a1.85,1.85,0,0,1,0-.23c.46,0,.94-.07,1.2.46Z"/><path class="cls-20" d="M341.38,2.89a.86.86,0,0,1-1-.44l1,.22c.08.05.11.09.09.14S341.41,2.89,341.38,2.89Z"/><path class="cls-21" d="M341.38,2.89V2.67a.87.87,0,0,1,1,.44Z"/><path class="cls-22" d="M497.58,32.89a.86.86,0,0,1,.47-1A1.23,1.23,0,0,1,497.58,32.89Z"/><path class="cls-12" d="M323.13,35.76a1.17,1.17,0,0,1-.47,1A.85.85,0,0,1,323.13,35.76Z"/><path class="cls-23" d="M315.45,53c0,.35,0,.68-.43.76A.67.67,0,0,1,315.45,53Z"/><path class="cls-24" d="M487,56.41a1.12,1.12,0,0,1,.47-1A.92.92,0,0,1,487,56.41Z"/><path class="cls-25" d="M312.57,59.51a1.21,1.21,0,0,1-.47,1A.85.85,0,0,1,312.57,59.51Z"/><path class="cls-26" d="M484.87,61.43a.84.84,0,0,1,.46-1A1.23,1.23,0,0,1,484.87,61.43Z"/><path class="cls-27" d="M483.17,65.5a.93.93,0,0,1,.48-1A1.16,1.16,0,0,1,483.17,65.5Z"/><line class="cls-28" x1="436.72" y1="185.68" x2="422.16" y2="218.05"/><line class="cls-28" x1="511.19" y1="20.07" x2="469.47" y2="112.84"/><line class="cls-29" x1="382.2" y1="218.74" x2="527.15" y2="226.88"/><line class="cls-30" x1="505.38" y1="239.69" x2="500.76" y2="226.88"/><path class="cls-31" d="M437.71,93.47c-11.61,18.2-5.48,42.87,13.68,55.09s44.12,7.38,55.72-10.82Z"/><path class="cls-31" d="M493.92,162.28A59.27,59.27,0,0,1,387.3,122.91c.11-1.8.31-3.57.58-5.31"/><circle cx="407.11" cy="78.67" r="5.5"/><circle class="cls-31" cx="396.61" cy="78.05" r="32.65" transform="translate(91.01 342.63) rotate(-52.02)"/><line class="cls-32" x1="431.83" y1="78.05" x2="446.1" y2="78.05"/><line class="cls-31" x1="490.87" y1="163.64" x2="567.15" y2="163.64"/><line class="cls-33" x1="425.97" y1="186.77" x2="412.73" y2="216.15"/><line class="cls-33" x1="445.73" y1="188.68" x2="432.49" y2="218.06"/><path class="cls-34" d="M2.67,102.89v16.79H23.76V102.89h2.66v38.22H23.76V122H2.67v19.11H0V102.89Z"/><path class="cls-34" d="M50.52,141.11l-.4-3.91H50a10.22,10.22,0,0,1-8.67,4.53c-5.45,0-8-3.85-8-7.48,0-6.3,5.56-10.09,16.62-10v-.68c0-2.72-.52-8.11-7-8a11.54,11.54,0,0,0-6.8,2l-.85-2a14.73,14.73,0,0,1,7.93-2.32c7.89,0,9.36,5.9,9.36,10.77v10.6a47.83,47.83,0,0,0,.4,6.47Zm-.62-14.57c-6-.17-13.78.73-13.78,7.25,0,3.92,2.6,5.67,5.44,5.67a8.18,8.18,0,0,0,8-5.44,5.91,5.91,0,0,0,.29-1.64Z"/><path class="cls-34" d="M61.4,120.41c0-2.49-.11-4.36-.22-6.52h2.49l.23,4.93H64a10.22,10.22,0,0,1,9.36-5.55c2.61,0,9.47,1.3,9.47,11.51v16.33H80.17V125c0-4.94-1.92-9.42-7.54-9.42a8.68,8.68,0,0,0-8.16,6.24,8,8,0,0,0-.4,2.44v16.84H61.4Z"/><path class="cls-34" d="M91.79,120.41c0-2.49-.11-4.36-.22-6.52h2.49l.23,4.93h.11a10.22,10.22,0,0,1,9.36-5.55c2.61,0,9.47,1.3,9.47,11.51v16.33h-2.67V125c0-4.94-1.92-9.42-7.54-9.42a8.68,8.68,0,0,0-8.16,6.24,8,8,0,0,0-.4,2.44v16.84H91.79Z"/><path class="cls-34" d="M137,141.11l-.4-3.91h-.17a10.2,10.2,0,0,1-8.67,4.53c-5.44,0-8-3.85-8-7.48,0-6.3,5.56-10.09,16.62-10v-.68c0-2.72-.51-8.11-7-8a11.56,11.56,0,0,0-6.8,2l-.85-2a14.76,14.76,0,0,1,7.94-2.32c7.88,0,9.35,5.9,9.35,10.77v10.6a49.52,49.52,0,0,0,.4,6.47Zm-.62-14.57c-6-.17-13.78.73-13.78,7.25,0,3.92,2.61,5.67,5.44,5.67a8.18,8.18,0,0,0,8-5.44,5.91,5.91,0,0,0,.29-1.64Z"/><path class="cls-34" d="M147.93,100.85h2.66v17.92h.12a9.94,9.94,0,0,1,3.74-4,10.27,10.27,0,0,1,5.5-1.53c2.55,0,9.41,1.3,9.41,11.4v16.44H166.7V125c0-4.94-1.93-9.42-7.49-9.42a8.91,8.91,0,0,0-8.22,6.18,7.66,7.66,0,0,0-.4,2.67v16.67h-2.66Z"/><path class="cls-34" d="M190.79,102.89h18.88v2.27H193.46v15.2h14.85v2.26H193.46v18.49h-2.67Z"/><path class="cls-34" d="M238.25,127.22c0,10.2-7,14.51-13,14.51-7,0-12.48-5.5-12.48-14,0-9.36,6.13-14.46,12.87-14.46C233.15,113.27,238.25,118.88,238.25,127.22Zm-22.79.34c0,6.8,4.36,11.9,9.92,11.9s10.15-5.1,10.15-12.07c0-5-2.84-11.91-10-11.91C218.63,115.48,215.46,121.72,215.46,127.56Z"/><path class="cls-34" d="M267.05,113.89c-.11,2-.23,4.2-.23,7v16.22c0,7-1.41,10.43-3.68,12.59-2.5,2.38-6.18,3.23-9.24,3.23s-6.58-.79-8.62-2.33l1-2.21a14.29,14.29,0,0,0,8,2.27c5.73,0,9.87-2.95,9.87-11v-3.85h-.11c-1.42,2.77-4.6,5.27-9.47,5.27-6.86,0-11.68-6-11.68-13.38,0-9.47,6.23-14.46,12.24-14.46,5.39,0,8.06,3,9.19,5.21h.11l.12-4.59Zm-2.89,10.43a9.2,9.2,0,0,0-.34-2.6,8.85,8.85,0,0,0-8.45-6.24c-5.78,0-9.75,4.76-9.75,12,0,6.13,3.23,11.4,9.64,11.4a8.83,8.83,0,0,0,8.39-6.12,8.44,8.44,0,0,0,.51-2.9Z"/><path class="cls-34" d="M290.86,141.11l-.39-3.91h-.17a10.24,10.24,0,0,1-8.68,4.53c-5.44,0-8-3.85-8-7.48,0-6.3,5.55-10.09,16.61-10v-.68c0-2.72-.51-8.11-7-8a11.57,11.57,0,0,0-6.81,2l-.85-2a14.76,14.76,0,0,1,7.94-2.32c7.88,0,9.36,5.9,9.36,10.77v10.6a49.52,49.52,0,0,0,.39,6.47Zm-.62-14.57c-5.95-.17-13.78.73-13.78,7.25,0,3.92,2.61,5.67,5.45,5.67a8.19,8.19,0,0,0,8-5.44,5.88,5.88,0,0,0,.28-1.64Z"/><path class="cls-34" d="M301.75,122.06c0-2.72-.11-5.56-.23-8.17H304l.11,5.5h.11c1.19-3.4,4-6.12,7.77-6.12a6.59,6.59,0,0,1,1.08.11V116a4.78,4.78,0,0,0-1.3-.11c-3.75,0-6.41,3.23-7.15,7.59a19.34,19.34,0,0,0-.23,2.61v15h-2.66Z"/><path class="cls-34" d="M323.69,106v7.88h7.77v2.16h-7.77v17.69c0,3.46,1.08,5.67,4,5.67a9.68,9.68,0,0,0,3.12-.46l.34,2.1a10.78,10.78,0,0,1-3.8.63,5.65,5.65,0,0,1-4.65-1.93c-1.25-1.42-1.7-3.69-1.7-6.47V116.05h-4.59v-2.16H321v-7Z"/><path class="cls-34" d="M337,113.89l7.15,17.81c.74,1.92,1.47,4.08,2,5.84h.12c.56-1.7,1.24-3.8,2.09-6L355,113.89h2.89l-8.17,20.3c-3.28,8.45-5.61,13.5-9.18,16.61a15.66,15.66,0,0,1-4.76,2.84l-.85-2.27a13.62,13.62,0,0,0,4.76-3.06,20.55,20.55,0,0,0,4.53-6.8,3.84,3.84,0,0,0,.34-1.2,3.48,3.48,0,0,0-.34-1.19l-10.09-25.23Z"/><path class="cls-35" d="M157.79,156.18a107,107,0,0,1,14.39-1.07c10.19,0,18,2.78,22.45,7.7,4,4.34,5.78,9.48,5.78,15.68A25.63,25.63,0,0,1,193.78,196c-4.63,4.92-12.76,8-23.52,8-4.35,0-8.34-.07-12.47-.43Zm3.49,44.47a69.83,69.83,0,0,0,9.55.43c18.24,0,26-10.05,26-22.52C197,166.8,189.43,158,171.9,158a54.18,54.18,0,0,0-10.62.93Z"/><path class="cls-35" d="M210,186.47c0,10,6.34,15,14.47,15,5.91,0,8.76-1.14,11-2.14l.93,2.78c-1.21.57-5.06,2.35-12.26,2.35-10.62,0-17.53-7.2-17.53-17.11,0-11.61,7.41-18.81,17.1-18.81,12.69,0,14.9,11.26,14.9,15.82a8.67,8.67,0,0,1-.14,2.14Zm24.95-2.78c.07-3.56-1.43-12.33-11.69-12.33-8.7,0-12.33,7.13-13.05,12.33Z"/><path class="cls-35" d="M246.6,198.94a16.63,16.63,0,0,0,8.55,2.57c6,0,8.62-3.14,8.62-6.63,0-4-2.71-5.92-8-7.63-6.2-2-9.27-5.2-9.27-9.26,0-4.85,3.85-9.48,11.26-9.48a14.88,14.88,0,0,1,8.27,2.28l-1.35,2.85a13.11,13.11,0,0,0-7.56-2.21c-4.7,0-7.2,2.85-7.2,6.13,0,3.85,2.93,5.35,8,7.06,6.27,2.13,9.33,4.84,9.33,10,0,5.56-4.56,9.84-12.33,9.84a19.27,19.27,0,0,1-9.55-2.49Z"/><path class="cls-35" d="M281.74,159.24a3,3,0,0,1-3,3.07,2.94,2.94,0,0,1-2.78-3.07,3.06,3.06,0,0,1,2.92-3.06A3,3,0,0,1,281.74,159.24Zm-4.64,44.33V169.36h3.49v34.21Z"/><path class="cls-35" d="M323.79,169.36c-.22,2.78-.29,5.49-.29,8.27v20.88c0,8.34-2.07,13.12-5.27,16-3.57,3.21-8.7,4.2-12.83,4.2s-9.2-1.06-12.19-3.35l1.28-2.78A20.09,20.09,0,0,0,306,215.83c8.2,0,14-4.13,14-14.54v-5h-.14c-2,3.64-6.49,7.27-13.62,7.27-9.76,0-16.32-8-16.32-16.67,0-11.48,8.41-18.39,17.11-18.39,7.55,0,11.62,3.92,13.18,7.2h.15l.21-6.35ZM320,183.12a10.86,10.86,0,0,0-.5-3.56,12.48,12.48,0,0,0-12.12-8.2c-8.19,0-14,6-14,15.11,0,6.84,4.28,14.25,13.83,14.25a13.12,13.12,0,0,0,12.05-8.19,10.6,10.6,0,0,0,.71-3.71Z"/><path class="cls-35" d="M335.34,177.63c0-2.78-.07-5.49-.29-8.27h3.28l.29,6.85h.14a14.5,14.5,0,0,1,13.18-7.7c3.14,0,13.33,1.42,13.33,15.61v19.45h-3.49V184.12c0-6.7-2.92-12.62-10.76-12.62a12.61,12.61,0,0,0-11.62,8.13,9.58,9.58,0,0,0-.57,3.06v20.88h-3.49Z"/></g></g></svg>