<?xml version="1.0" encoding="UTF-8"?>
<svg id="Layer_2" data-name="Layer 2" xmlns="http://www.w3.org/2000/svg" viewBox="0 0 1886 422">
  <defs>
    <style>
      .cls-1 {
        fill: #565294;
      }

      .cls-1, .cls-2, .cls-3, .cls-4, .cls-5, .cls-6, .cls-7, .cls-8 {
        stroke-width: 0px;
      }

      .cls-2 {
        fill: #f5f7fa;
      }

      .cls-4 {
        fill: #fff;
      }

      .cls-5 {
        fill: #006f46;
      }

      .cls-6 {
        fill-rule: evenodd;
      }

      .cls-6, .cls-8 {
        fill: #ee2824;
      }

      .cls-7 {
        fill: #c00;
      }
    </style>
  </defs>
  <g id="Layer_1-2" data-name="Layer 1">
    <rect class="cls-2" width="1886" height="422"/>
    <g>
      <path class="cls-5" d="m620.5,251.24s-1.38.09-2.06.2c-2.62.42-3.39,1.13-3.39,4.35v25.41c0,3.46,2.16,3.67,5.2,3.84,7.43.42,11.74-6.18,11.74-16.85s-4.29-16.95-11.49-16.95c0,0-1.38.09-2.06.2-2.62.42-3.39,1.13-3.39,4.35v25.41c0,3.46,2.16,3.67,5.2,3.84,7.43.42,11.74-6.18,11.74-16.85s-4.29-16.95-11.49-16.95m-77.98.37c-6.66,0-10.78,6.36-10.78,16.89s4.05,16.53,10.9,16.53,10.84-6.48,10.84-16.65-4.24-16.78-10.97-16.78m39.77,0c-6.66,0-10.79,6.36-10.79,16.89s4.06,16.53,10.91,16.53,10.84-6.48,10.84-16.65-4.24-16.78-10.96-16.78m38.21-.37s-1.38.09-2.06.2c-2.62.42-3.39,1.13-3.39,4.35v25.41c0,3.46,2.16,3.67,5.2,3.84,7.43.42,11.74-6.18,11.74-16.85s-4.29-16.95-11.49-16.95c0,0-1.38.09-2.06.2-2.62.42-3.39,1.13-3.39,4.35v25.41c0,3.46,2.16,3.67,5.2,3.84,7.43.42,11.74-6.18,11.74-16.85s-4.29-16.95-11.49-16.95m-38.21.37c-6.66,0-10.79,6.36-10.79,16.89s4.06,16.53,10.91,16.53,10.84-6.48,10.84-16.65-4.24-16.78-10.96-16.78m-39.77,0c-6.66,0-10.78,6.36-10.78,16.89s4.05,16.53,10.9,16.53,10.84-6.48,10.84-16.65-4.24-16.78-10.97-16.78m5.44,59.71c-.1-.19-1.59-3.27-1.77-3.66-.17-.34-.58-.36-.73.01-.17.42-1.64,3.38-1.74,3.59-.17.35.02.58.36.58h3.52c.26,0,.51-.23.37-.53m-5.44-59.71c-6.66,0-10.78,6.36-10.78,16.89s4.05,16.53,10.9,16.53,10.84-6.48,10.84-16.65-4.24-16.78-10.97-16.78m39.77,0c-6.66,0-10.79,6.36-10.79,16.89s4.06,16.53,10.91,16.53,10.84-6.48,10.84-16.65-4.24-16.78-10.96-16.78m38.21-.37s-1.38.09-2.06.2c-2.62.42-3.39,1.13-3.39,4.35v25.41c0,3.46,2.16,3.67,5.2,3.84,7.43.42,11.74-6.18,11.74-16.85s-4.29-16.95-11.49-16.95c0,0-1.38.09-2.06.2-2.62.42-3.39,1.13-3.39,4.35v25.41c0,3.46,2.16,3.67,5.2,3.84,7.43.42,11.74-6.18,11.74-16.85s-4.29-16.95-11.49-16.95m-38.21.37c-6.66,0-10.79,6.36-10.79,16.89s4.06,16.53,10.91,16.53,10.84-6.48,10.84-16.65-4.24-16.78-10.96-16.78m-39.77,0c-6.66,0-10.78,6.36-10.78,16.89s4.05,16.53,10.9,16.53,10.84-6.48,10.84-16.65-4.24-16.78-10.97-16.78m5.44,59.71c-.1-.19-1.59-3.27-1.77-3.66-.17-.34-.58-.36-.73.01-.17.42-1.64,3.38-1.74,3.59-.17.35.02.58.36.58h3.52c.26,0,.51-.23.37-.53-.1-.19-1.59-3.27-1.77-3.66-.17-.34-.58-.36-.73.01-.17.42-1.64,3.38-1.74,3.59-.17.35.02.58.36.58h3.52c.26,0,.51-.23.37-.53m-5.44-59.71c-6.66,0-10.78,6.36-10.78,16.89s4.05,16.53,10.9,16.53,10.84-6.48,10.84-16.65-4.24-16.78-10.97-16.78m28.37,53.41h-4.49c-.46,0-.95.16-.95.74v3.27c0,.51.49.81.95.81h4.49c1.51,0,2.74-.79,2.74-2.41s-1.23-2.41-2.74-2.41m11.4-53.41c-6.66,0-10.79,6.36-10.79,16.89s4.06,16.53,10.91,16.53,10.84-6.48,10.84-16.65-4.24-16.78-10.96-16.78m38.21-.37s-1.38.09-2.06.2c-2.62.42-3.39,1.13-3.39,4.35v25.41c0,3.46,2.16,3.67,5.2,3.84,7.43.42,11.74-6.18,11.74-16.85s-4.29-16.95-11.49-16.95c0,0-1.38.09-2.06.2-2.62.42-3.39,1.13-3.39,4.35v25.41c0,3.46,2.16,3.67,5.2,3.84,7.43.42,11.74-6.18,11.74-16.85s-4.29-16.95-11.49-16.95m-38.21.37c-6.66,0-10.79,6.36-10.79,16.89s4.06,16.53,10.91,16.53,10.84-6.48,10.84-16.65-4.24-16.78-10.96-16.78m-39.77,0c-6.66,0-10.78,6.36-10.78,16.89s4.05,16.53,10.9,16.53,10.84-6.48,10.84-16.65-4.24-16.78-10.97-16.78m28.37,53.41h-4.49c-.46,0-.95.16-.95.74v3.27c0,.51.49.81.95.81h4.49c1.51,0,2.74-.79,2.74-2.41s-1.23-2.41-2.74-2.41m-22.92,6.29c-.1-.19-1.59-3.27-1.77-3.66-.17-.34-.58-.36-.73.01-.17.42-1.64,3.38-1.74,3.59-.17.35.02.58.36.58h3.52c.26,0,.51-.23.37-.53-.1-.19-1.59-3.27-1.77-3.66-.17-.34-.58-.36-.73.01-.17.42-1.64,3.38-1.74,3.59-.17.35.02.58.36.58h3.52c.26,0,.51-.23.37-.53m-5.44-59.71c-6.66,0-10.78,6.36-10.78,16.89s4.05,16.53,10.9,16.53,10.84-6.48,10.84-16.65-4.24-16.78-10.97-16.78m28.37,53.41h-4.49c-.46,0-.95.16-.95.74v3.27c0,.51.49.81.95.81h4.49c1.51,0,2.74-.79,2.74-2.41s-1.23-2.41-2.74-2.41m11.4-53.41c-6.66,0-10.79,6.36-10.79,16.89s4.06,16.53,10.91,16.53,10.84-6.48,10.84-16.65-4.24-16.78-10.96-16.78m38.21-.37s-1.38.09-2.06.2c-2.62.42-3.39,1.13-3.39,4.35v25.41c0,3.46,2.16,3.67,5.2,3.84,7.43.42,11.74-6.18,11.74-16.85s-4.29-16.95-11.49-16.95c0,0-1.38.09-2.06.2-2.62.42-3.39,1.13-3.39,4.35v25.41c0,3.46,2.16,3.67,5.2,3.84,7.43.42,11.74-6.18,11.74-16.85s-4.29-16.95-11.49-16.95m-38.21.37c-6.66,0-10.79,6.36-10.79,16.89s4.06,16.53,10.91,16.53,10.84-6.48,10.84-16.65-4.24-16.78-10.96-16.78m-39.77,0c-6.66,0-10.78,6.36-10.78,16.89s4.05,16.53,10.9,16.53,10.84-6.48,10.84-16.65-4.24-16.78-10.97-16.78m28.37,53.41h-4.49c-.46,0-.95.16-.95.74v3.27c0,.51.49.81.95.81h4.49c1.51,0,2.74-.79,2.74-2.41s-1.23-2.41-2.74-2.41m-22.92,6.29c-.1-.19-1.59-3.27-1.77-3.66-.17-.34-.58-.36-.73.01-.17.42-1.64,3.38-1.74,3.59-.17.35.02.58.36.58h3.52c.26,0,.51-.23.37-.53m123.47-23.15c0-.42-.42-.52-.84-.52h-.57v1.04h.43c.52,0,.98-.03.98-.51m0,2.58l-1.06-1.49h-.36v1.49h-.63v-3.69h1.39c.87,0,1.26.34,1.26,1.1s-.41,1.02-.94,1.08l1.07,1.51h-.73Zm-.85-4.29c-1.42,0-2.48,1.07-2.48,2.54s1.06,2.53,2.48,2.53,2.48-1.06,2.48-2.53-1.05-2.54-2.48-2.54m-124.4,21.19c-.17-.34-.58-.36-.73.01-.17.42-1.64,3.38-1.74,3.59-.17.35.02.58.36.58h3.52c.26,0,.51-.23.37-.53-.1-.19-1.59-3.27-1.77-3.66m-3.67-56.05c-6.66,0-10.78,6.36-10.78,16.89s4.05,16.53,10.9,16.53,10.84-6.48,10.84-16.65-4.24-16.78-10.97-16.78m28.37,53.41h-4.49c-.46,0-.95.16-.95.74v3.27c0,.51.49.81.95.81h4.49c1.51,0,2.74-.79,2.74-2.41s-1.23-2.41-2.74-2.41m11.4-53.41c-6.66,0-10.79,6.36-10.79,16.89s4.06,16.53,10.91,16.53,10.84-6.48,10.84-16.65-4.24-16.78-10.96-16.78m49.71,16.58c0-10.68-4.29-16.95-11.49-16.95,0,0-1.38.09-2.06.2-2.62.42-3.39,1.13-3.39,4.35v25.41c0,3.46,2.16,3.67,5.2,3.84,7.43.42,11.74-6.18,11.74-16.85m41.82-29.4c-.24,1.11-.94,1.52-2.16,1.52h-1.55s-23.78,0-23.78,0c-2.04,0-2.74-.41-2.74-1.76,0-.89.69-1.63,1.51-1.63h1.23c.42,0,.84-.37.97-.78.19-.49.24-.79.24-2.43v-27.11c0-1.57-.05-1.89-.24-2.38-.13-.54-.62-.9-.97-.9h-1.23c-.81,0-1.56-.79-1.56-1.69,0-1.34.74-1.78,2.79-1.78h24.21c1.22,0,1.91.41,2.16,1.52l.86,4.22c.33,1.56-.22,2.39-1.33,2.39-.59,0-1.15-.15-1.56-.94-.07-.12-.32-.56-.6-1.31-.59-1.56-1.81-1.75-4.64-1.75h-5.71c-3.31,0-3.68.44-3.68,3.66v7.2c0,1.36.19,1.95.56,2.19.28.19.73.24,2.47.24h2.82c2.54,0,2.91-.19,3.09-1.4l.04-.37c.19-1.03.73-1.51,1.64-1.51,1.27,0,1.69.72,1.69,2.85v5.09c0,2.12-.42,2.85-1.69,2.85-.91,0-1.46-.55-1.64-1.58l-.06-.4c-.18-1.21-.54-1.39-3.09-1.39h-2.8c-1.74,0-2.19.04-2.47.24-.37.24-.56.83-.56,2.19v7.68c0,3.21.19,3.89,1.15,4.26.78.29,1.62.42,3.61.42h6.03c2.16-.01,3.69-.69,4.44-2.26.34-.71.45-.99.52-1.11.41-.79,1.05-1.14,1.64-1.14,1.1,0,1.64.84,1.32,2.39l-.94,4.71h0Zm-3.22,53.37c-1.75,0-3.15-1.41-3.15-3.16s1.4-3.16,3.15-3.16,3.15,1.41,3.15,3.16-1.41,3.16-3.15,3.16m-14.12-2.74c-2.24,0-4.63-.32-6.37-.86-.87-.24-.97-.3-1.31-.3-.51,0-.77.12-1.29.6-.57.44-.87.56-1.41.56-1.01,0-1.51-.56-1.87-2.01l-1.53-6.06c-.11-.36-.16-.91-.16-1.21,0-1.08.84-1.89,1.91-1.89.63,0,1.15.32,1.52.82l.87,1.2c2.1,2.96,5.49,4.8,8.96,4.8,3.94,0,6.62-2.2,6.62-5.41,0-1.64-.68-3.09-1.97-4.55-1.31-1.45-2.94-2.79-6.43-5.21-5.74-4.02-6.28-4.39-8.16-6.56-1.53-1.77-2.31-3.94-2.31-6.37,0-5.88,4.47-9.76,11.15-9.76,1.71,0,3.46.16,5.23.54.18.06.68.18,1.53.37.28.06.59.12.83.12.4,0,.86-.2,1.39-.55.6-.44.79-.49,1.28-.49.89,0,1.46.61,1.71,1.69l1.45,6.56c.11.28.11.65.11.84,0,.79-.71,1.45-1.74,1.45-.65,0-1.05-.24-1.61-1.02-1.36-2.06-1.62-2.3-2.89-3.28-1.63-1.27-3.71-1.95-5.7-1.95-2.8,0-4.61,1.59-4.61,4.08,0,.89.16,1.81.66,2.48.61.91,1.59,1.87,2.79,2.79.75.53,1.71,1.23,3,2.13,4.79,3.33,6.36,4.55,8.31,6.54,2.05,2.12,3.28,5.15,3.28,8.26,0,7.01-5.23,11.64-13.24,11.64m-15.31,15.63h-3.53c-.49,0-.84.16-.84.74l.02,10.55c0,.74-.53.83-1.36.83s-1.34-.08-1.34-.8v-10.56c0-.51-.19-.76-.83-.76h-3.57c-.58,0-.74-.56-.74-1.02,0-.51-.04-1.51.72-1.51h11.4c.51,0,.86.28.86,1.23,0,.84-.22,1.3-.8,1.3m-29.32,3.26h5.04c.61,0,.77.53.77,1.3,0,.67-.14,1.26-.71,1.26h-5.02c-.4,0-.76.28-.76.74v2.13c0,.51.28.76.69.76h8.64c.57,0,.77.38.77,1.32,0,.68-.16,1.24-.76,1.24h-11.12c-.64,0-.91-.31-.91-1.07v-12.53c0-.57.23-.97.89-.97h11.16c.66,0,.78.44.78,1.23,0,.74-.1,1.32-.82,1.32h-8.72c-.35,0-.6.27-.6.65v1.97c0,.41.3.64.69.64m-9.16-21.68c0-.91.61-1.68,1.44-1.68h1.24c.41,0,.83-.32,1.03-.79.12-.44.19-.8.19-2.39v-26.99c0-1.58-.06-1.95-.19-2.39-.2-.46-.61-.79-1.03-.79h-1.24c-.83,0-1.44-.77-1.44-1.68,0-1.32.91-1.51,2.68-1.77,1.77-.26,6.71-.94,14.28-.94s12.25,1.64,15.96,5.4c3.57,3.58,5.5,9.09,5.5,15.64,0,7.34-2.47,13.4-6.97,16.98-3.49,2.83-7.88,4.11-14.49,4.11-7.56,0-12.51-.68-14.28-.94-1.77-.26-2.68-.44-2.68-1.77m-20.47,2.76c-9.78,0-16.78-5.52-19.03-14.42-.03-.06-.05-.13-.06-.2-.2-1-1.1-1.07-1.32,0,0,.04-.03.07-.04.11-2.27,9.03-9.31,14.52-19.31,14.52-11.99,0-19.8-8.3-19.8-20.96s7.75-21.2,19.92-21.2c9.99,0,17.1,5.57,19.28,14.66.23,1.04,1.11.96,1.31-.03,0-.01,0-.03.02-.04,2.22-9.09,9.21-14.59,19.16-14.59,12.11,0,19.99,8.18,19.99,20.9s-7.81,21.26-20.11,21.26m16.79,27.78c-1.23,0-1.56-.19-1.88-.57l-4.66-4.98c-.64-.55-1.27-.64-2.14-.64-.49,0-.87.5-.87,1.08v4.24c0,.81-.69.86-1.45.86-.8,0-1.22-.22-1.22-.87v-12.95c0-.76.48-.89,1.42-.89.74,0,1.25.17,1.25.87v3.91c0,.63.29.94.68.94,1.14,0,1.38-.24,1.8-.61.47-.4,5.26-4.79,5.26-4.79.6-.51,1.21-.51,1.79.05.48.46.69.97.16,1.5-.37.36-4.57,4.16-4.57,4.16-.52.45-.39.87-.04,1.26,0,0,5.04,5.56,5.57,6.13.79.86.06,1.29-1.09,1.29m-25.63-4.7c.12.17,2.16,3.14,2.46,3.58.45.67.04,1.11-1.35,1.11-.78,0-1.3-.14-1.64-.64l-2.26-3.52c-.26-.39-.63-.64-1.14-.64h-3.24c-.39,0-.76.32-.76.71l.02,3.51c0,.69-1.34.58-1.78.58-.58,0-.9-.17-.9-.81l.02-13.34c0-.35.3-.56.62-.56h7.67c2.96,0,5.19,1.91,5.19,4.97,0,2.64-1.91,3.51-2.67,4.16-.38.33-.47.56-.24.89m-21.56,4.7c-.44,0-1.11-.07-1.32-.56l-.94-1.95c-.12-.26-.37-.46-.68-.46h-6.01c-.38,0-.72.28-.94.82l-.83,1.59c-.19.46-1.09.54-1.52.54-.37,0-1.59-.04-1.21-.86l6.38-13.23c.18-.39.51-.68,1.11-.68s.93.2,1.13.63c0,0,6.09,12.99,6.26,13.37.32.68-1,.8-1.44.8m-23.09,0c-.37,0-1.06-.21-1.06-.69l-1.03-7.78c-.07-.32-.19-.46-.44-.46-.21,0-.31.1-.46.28l-3.49,4.47c-.18.24-.41.39-.69.39-.4,0-.57-.1-.8-.44l-3.21-4.34c-.14-.18-.3-.23-.46-.23-.26,0-.39.23-.42.53l-1.01,7.52c-.09.62-.86.74-1.49.74-.44,0-1.18-.21-1.18-.76l1.48-12.68c.16-.76.32-1.19,1.41-1.19.28,0,.73.08,1.08.62l3.99,5.61c.21.31.46.57.72.56.26,0,.53-.28.76-.58l4.21-5.73c.26-.39.65-.56,1.11-.56.51,0,.88.12,1.09.97l1.48,13c.07.74-1.09.74-1.6.74m-25.12-35.28c0,1.64,0,1.93.14,2.36.26.49.81.8,1.29.8h1.37c.95,0,1.61.78,1.61,1.69,0,1.34-.74,1.76-2.98,1.76h-11.16c-2.07,0-2.8-.42-2.8-1.76,0-.91.73-1.69,1.56-1.69h1.24c.41,0,.82-.32,1.02-.8.13-.43.19-.72.19-2.36v-27.12c0-1.57-.05-1.88-.24-2.37-.13-.54-.61-.91-.97-.91h-1.23c-.82,0-1.56-.78-1.56-1.69,0-1.34.74-1.77,2.79-1.77h26.29c1.22,0,1.91.41,2.16,1.52l.86,4.22c.33,1.55-.22,2.39-1.32,2.39-.59,0-1.16-.16-1.56-.95-.07-.12-.31-.57-.6-1.3-.59-1.56-1.81-1.76-4.63-1.76h-7.79c-3.31,0-3.69.44-3.69,3.66v7.21c0,1.36.19,1.94.56,2.19.28.19.72.24,2.47.24h5.01c2.54,0,2.91-.19,3.09-1.4l.04-.38c.19-1.03.73-1.52,1.64-1.52,1.28,0,1.7.73,1.7,2.85v5.1c0,2.12-.42,2.85-1.7,2.85-.91,0-1.45-.55-1.64-1.58l-.06-.4c-.18-1.21-.54-1.4-3.09-1.4h-4.99c-1.74,0-2.19.04-2.47.24-.37.25-.56.84-.56,2.2l.02,9.88h0Zm-19.96-75.67c-.91-2.49-1.19-2.79-3.14-3.21-1.29-.24-1.69-.66-1.69-1.64,0-1.03.64-1.57,2.04-1.57h12.52c1.38,0,1.99.54,1.99,1.64,0,1.02-.61,1.44-2.18,1.57-1.34.12-1.88.55-1.88,1.51,0,.41.05.85.22,1.35l.48,1.39s6.69,18.96,7.75,22.01c.18.49.73.46.91-.08,1.18-3.38,4.38-12.67,4.49-13.05.33-1.07.47-2.2.08-3.44-.13-.44-2.18-6.48-2.18-6.48-.23-.66-.37-1.14-.5-1.39-.36-.89-.85-1.21-2.25-1.58-1.25-.31-1.73-.72-1.73-1.62,0-1.16.7-1.83,2.11-1.83h11.9c1.38,0,2.05.54,2.05,1.64,0,.96-.61,1.44-1.96,1.63-1.61.19-2.05.56-2.05,1.64,0,.55.12,1.09.62,2.55,0,0,5.87,18.58,6.8,21.5.18.55.7.43.85-.06.91-2.97,6.72-22.48,6.72-22.48.17-.61.24-1.09.24-1.46,0-.91-.65-1.39-2.12-1.58-1.34-.12-1.95-.73-1.95-1.69,0-1.21.69-1.69,2.31-1.69h21.02c2,0,2.66.41,2.66,1.74,0,.99-.66,1.71-1.5,1.71h-1.16c-.5,0-.97.37-1.16.77-.11.45-.16.87-.16,2.38v7.82c0,2.8.24,3.03,2.49,3.03h8.24c1.21,0,1.83-.19,2.13-.54.28-.37.28-.61.28-2.86v-7.46c0-1.58,0-1.93-.15-2.38-.21-.46-.69-.77-1.11-.77h-1.16c-.91,0-1.65-.72-1.65-1.71,0-1.33.73-1.74,2.81-1.74h11.02c2.06,0,2.8.41,2.8,1.74,0,.99-.74,1.71-1.56,1.71h-1.23c-.41,0-.9.37-1.03.77-.17.45-.21.87-.21,2.38v27.23c0,1.58.04,1.93.21,2.43.13.42.62.72,1.03.72h1.23c.9,0,1.56.79,1.56,1.69,0,1.34-.66,1.76-2.8,1.76h-11.02c-2.07,0-2.73-.41-2.73-1.76,0-.9.73-1.69,1.57-1.69h1.16c.41,0,.89-.3,1.11-.72.15-.49.15-.85.15-2.43v-8.85c0-2.25,0-2.49-.28-2.85-.31-.36-.93-.55-2.13-.55h-8.24c-2.24,0-2.49.24-2.49,3.04v9.21c0,1.58.05,1.93.16,2.43.19.42.66.72,1.16.72h1.16c.84,0,1.46.79,1.46,1.76,0,1.27-.69,1.69-2.62,1.69h-11.05c-2.04,0-2.77-.41-2.77-1.76,0-.9.74-1.69,1.57-1.69h1.2c.43,0,.93-.3,1.04-.72.19-.49.19-.81.19-2.43v-27.23c0-3.09-1.45-3.3-2.51-3.16-1.07.15-1.7.83-2.36,2.97l-9.66,31.12c-.87,2.96-1.69,3.81-3.51,3.81s-2.73-.78-3.46-3.03c0,0-4.99-14.93-5.16-15.42-.17-.49-.69-.51-.83-.04-.14.48-5.51,15.46-5.51,15.46-.58,1.45-.73,1.87-1.23,2.37-.48.36-1.27.66-2.06.66-1.76,0-2.62-.73-3.46-3.03l-11.9-31.9h0Zm80.48-18.36c2.03-7.53,9.35-15.13,17.44-12.81,6.86,1.96,6.38,7.63,11.37,9.41,1.79.64,1.65,2.44.09,2.74-2.64.5-6.19-1.41-8.85-3.82-3.11-2.82-8.16-2.7-10.62-.82-1.08.82-.53,1.61.46,1.39,2.29-.49,6.16-.62,9.14,2.72,2.93,3.28,8.38,6.22,13.21,3.07,1.33-.86,2.19-2.65,3.54-2.26,1.44.41,1.46,2.51-.43,4.95-4.47,5.76-9.04,5.07-13.95,9.88-4.9,4.81-5.89,10.27-5.89,17.21,0,10.76,4.23,17.28,11.39,17.28s11.33-6.77,11.33-17.41c0-8.77-2.08-14.44-7.29-16.44-2.52-.94-2.09-3.4,1.16-3.78,2.68-.31,5.3.6,8.18,2.72,4.97,3.66,7.44,9.47,7.44,17.26,0,13.55-8.16,22.22-21.01,22.22s-20.71-8.67-20.71-21.91c0-8.51,3.2-15.07,8.74-18.77,2.31-1.73,6.23-3.72,10.06-5.02.79-.27.79-1.68-.62-1.41-1.68.34-4.77.58-7.31-.45-5.72-2.26-7.38-6.29-14.12-3.4-2.03.87-3.34-.36-2.75-2.54m51.19,11.98h11.2c2.18,0,2.93.44,2.93,1.78,0,.96-.74,1.69-1.61,1.69h-1.32c-.56,0-1.1.3-1.27.79-.18.41-.18.78-.18,2.36v25.46c0,2.67.12,3.29.83,3.7.62.43,1.55.54,3.98.54h3.41c2.16,0,3.69-.68,4.44-2.25.34-.72.45-.99.52-1.11.41-.79,1.05-1.15,1.64-1.15,1.11,0,1.65.84,1.33,2.4l-.94,4.71c-.24,1.11-.94,1.52-2.16,1.52h-22.81c-2.02,0-2.69-.4-2.69-1.75,0-.89.66-1.63,1.51-1.63h1.17c.4,0,.89-.37,1.01-.78.18-.45.24-.74.24-2.26v-27.41c0-1.64-.06-1.88-.24-2.36-.12-.49-.61-.79-1.01-.79h-1.17c-.91,0-1.65-.73-1.65-1.69,0-1.34.74-1.78,2.82-1.78m-37.84-78.11c-69.04,0-125,55.97-125,125s55.97,125,125,125,125-55.97,125-125-55.96-125-125-125m93.97,166.42c0-.42-.42-.52-.84-.52h-.57v1.04h.43c.52,0,.98-.03.98-.51m0,2.58l-1.06-1.49h-.36v1.49h-.63v-3.69h1.39c.87,0,1.26.34,1.26,1.1s-.41,1.02-.94,1.08l1.07,1.51h-.73Zm-.85-4.29c-1.42,0-2.48,1.07-2.48,2.54s1.06,2.53,2.48,2.53,2.48-1.06,2.48-2.53-1.05-2.54-2.48-2.54m-122.63,24.85c-.1-.19-1.59-3.27-1.77-3.66-.17-.34-.58-.36-.73.01-.17.42-1.64,3.38-1.74,3.59-.17.35.02.58.36.58h3.52c.26,0,.51-.23.37-.53m22.92-6.29h-4.49c-.46,0-.95.16-.95.74v3.27c0,.51.49.81.95.81h4.49c1.51,0,2.74-.79,2.74-2.41s-1.23-2.41-2.74-2.41m-28.37-53.41c-6.66,0-10.78,6.36-10.78,16.89s4.05,16.53,10.9,16.53,10.84-6.48,10.84-16.65-4.24-16.78-10.97-16.78m39.77,0c-6.66,0-10.79,6.36-10.79,16.89s4.06,16.53,10.91,16.53,10.84-6.48,10.84-16.65-4.24-16.78-10.96-16.78m38.21-.37s-1.38.09-2.06.2c-2.62.42-3.39,1.13-3.39,4.35v25.41c0,3.46,2.16,3.67,5.2,3.84,7.43.42,11.74-6.18,11.74-16.85s-4.29-16.95-11.49-16.95m50.94,36.93c0-.42-.42-.52-.84-.52h-.57v1.04h.43c.52,0,.98-.03.98-.51m0,2.58l-1.06-1.49h-.36v1.49h-.63v-3.69h1.39c.87,0,1.26.34,1.26,1.1s-.41,1.02-.94,1.08l1.07,1.51h-.73Zm-.85-4.29c-1.42,0-2.48,1.07-2.48,2.54s1.06,2.53,2.48,2.53,2.48-1.06,2.48-2.53-1.05-2.54-2.48-2.54m-50.09-35.23s-1.38.09-2.06.2c-2.62.42-3.39,1.13-3.39,4.35v25.41c0,3.46,2.16,3.67,5.2,3.84,7.43.42,11.74-6.18,11.74-16.85s-4.29-16.95-11.49-16.95m-38.21.37c-6.66,0-10.79,6.36-10.79,16.89s4.06,16.53,10.91,16.53,10.84-6.48,10.84-16.65-4.24-16.78-10.96-16.78m-11.4,53.41h-4.49c-.46,0-.95.16-.95.74v3.27c0,.51.49.81.95.81h4.49c1.51,0,2.74-.79,2.74-2.41s-1.23-2.41-2.74-2.41m-28.37-53.41c-6.66,0-10.78,6.36-10.78,16.89s4.05,16.53,10.9,16.53,10.84-6.48,10.84-16.65-4.24-16.78-10.97-16.78m5.44,59.71c-.1-.19-1.59-3.27-1.77-3.66-.17-.34-.58-.36-.73.01-.17.42-1.64,3.38-1.74,3.59-.17.35.02.58.36.58h3.52c.26,0,.51-.23.37-.53-.1-.19-1.59-3.27-1.77-3.66-.17-.34-.58-.36-.73.01-.17.42-1.64,3.38-1.74,3.59-.17.35.02.58.36.58h3.52c.26,0,.51-.23.37-.53m22.92-6.29h-4.49c-.46,0-.95.16-.95.74v3.27c0,.51.49.81.95.81h4.49c1.51,0,2.74-.79,2.74-2.41s-1.23-2.41-2.74-2.41m-28.37-53.42c-6.66,0-10.78,6.36-10.78,16.89s4.05,16.53,10.9,16.53,10.84-6.48,10.84-16.65-4.24-16.78-10.97-16.78m39.77,0c-6.66,0-10.79,6.36-10.79,16.89s4.06,16.53,10.91,16.53,10.84-6.48,10.84-16.65-4.24-16.78-10.96-16.78m38.21-.37s-1.38.09-2.06.2c-2.62.42-3.39,1.13-3.39,4.35v25.41c0,3.46,2.16,3.67,5.2,3.84,7.43.42,11.74-6.18,11.74-16.85s-4.29-16.95-11.49-16.95c0,0-1.38.09-2.06.2-2.62.42-3.39,1.13-3.39,4.35v25.41c0,3.46,2.16,3.67,5.2,3.84,7.43.42,11.74-6.18,11.74-16.85s-4.29-16.95-11.49-16.95m-38.21.37c-6.66,0-10.79,6.36-10.79,16.89s4.06,16.53,10.91,16.53,10.84-6.48,10.84-16.65-4.24-16.78-10.96-16.78m-11.4,53.41h-4.49c-.46,0-.95.16-.95.74v3.27c0,.51.49.81.95.81h4.49c1.51,0,2.74-.79,2.74-2.41s-1.23-2.41-2.74-2.41m-28.37-53.41c-6.66,0-10.78,6.36-10.78,16.89s4.05,16.53,10.9,16.53,10.84-6.48,10.84-16.65-4.24-16.78-10.97-16.78m5.44,59.71c-.1-.19-1.59-3.27-1.77-3.66-.17-.34-.58-.36-.73.01-.17.42-1.64,3.38-1.74,3.59-.17.35.02.58.36.58h3.52c.26,0,.51-.23.37-.53-.1-.19-1.59-3.27-1.77-3.66-.17-.34-.58-.36-.73.01-.17.42-1.64,3.38-1.74,3.59-.17.35.02.58.36.58h3.52c.26,0,.51-.23.37-.53m22.92-6.29h-4.49c-.46,0-.95.16-.95.74v3.27c0,.51.49.81.95.81h4.49c1.51,0,2.74-.79,2.74-2.41s-1.23-2.41-2.74-2.41m-28.37-53.42c-6.66,0-10.78,6.36-10.78,16.89s4.05,16.53,10.9,16.53,10.84-6.48,10.84-16.65-4.24-16.78-10.97-16.78m39.77,0c-6.66,0-10.79,6.36-10.79,16.89s4.06,16.53,10.91,16.53,10.84-6.48,10.84-16.65-4.24-16.78-10.96-16.78m38.21-.37s-1.38.09-2.06.2c-2.62.42-3.39,1.13-3.39,4.35v25.41c0,3.46,2.16,3.67,5.2,3.84,7.43.42,11.74-6.18,11.74-16.85s-4.29-16.95-11.49-16.95c0,0-1.38.09-2.06.2-2.62.42-3.39,1.13-3.39,4.35v25.41c0,3.46,2.16,3.67,5.2,3.84,7.43.42,11.74-6.18,11.74-16.85s-4.29-16.95-11.49-16.95m-38.21.37c-6.66,0-10.79,6.36-10.79,16.89s4.06,16.53,10.91,16.53,10.84-6.48,10.84-16.65-4.24-16.78-10.96-16.78m-11.4,53.41h-4.49c-.46,0-.95.16-.95.74v3.27c0,.51.49.81.95.81h4.49c1.51,0,2.74-.79,2.74-2.41s-1.23-2.41-2.74-2.41m-28.37-53.41c-6.66,0-10.78,6.36-10.78,16.89s4.05,16.53,10.9,16.53,10.84-6.48,10.84-16.65-4.24-16.78-10.97-16.78m5.44,59.71c-.1-.19-1.59-3.27-1.77-3.66-.17-.34-.58-.36-.73.01-.17.42-1.64,3.38-1.74,3.59-.17.35.02.58.36.58h3.52c.26,0,.51-.23.37-.53m-5.44-59.71c-6.66,0-10.78,6.36-10.78,16.89s4.05,16.53,10.9,16.53,10.84-6.48,10.84-16.65-4.24-16.78-10.97-16.78m39.77,0c-6.66,0-10.79,6.36-10.79,16.89s4.06,16.53,10.91,16.53,10.84-6.48,10.84-16.65-4.24-16.78-10.96-16.78m38.21-.37s-1.38.09-2.06.2c-2.62.42-3.39,1.13-3.39,4.35v25.41c0,3.46,2.16,3.67,5.2,3.84,7.43.42,11.74-6.18,11.74-16.85s-4.29-16.95-11.49-16.95c0,0-1.38.09-2.06.2-2.62.42-3.39,1.13-3.39,4.35v25.41c0,3.46,2.16,3.67,5.2,3.84,7.43.42,11.74-6.18,11.74-16.85s-4.29-16.95-11.49-16.95m-38.21.37c-6.66,0-10.79,6.36-10.79,16.89s4.06,16.53,10.91,16.53,10.84-6.48,10.84-16.65-4.24-16.78-10.96-16.78m-39.77,0c-6.66,0-10.78,6.36-10.78,16.89s4.05,16.53,10.9,16.53,10.84-6.48,10.84-16.65-4.24-16.78-10.97-16.78-10.78,6.36-10.78,16.89,4.05,16.53,10.9,16.53,10.84-6.48,10.84-16.65-4.24-16.78-10.97-16.78m39.77,0c-6.66,0-10.79,6.36-10.79,16.89s4.06,16.53,10.91,16.53,10.84-6.48,10.84-16.65-4.24-16.78-10.96-16.78m38.21-.37s-1.38.09-2.06.2c-2.62.42-3.39,1.13-3.39,4.35v25.41c0,3.46,2.16,3.67,5.2,3.84,7.43.42,11.74-6.18,11.74-16.85s-4.29-16.95-11.49-16.95c0,0-1.38.09-2.06.2-2.62.42-3.39,1.13-3.39,4.35v25.41c0,3.46,2.16,3.67,5.2,3.84,7.43.42,11.74-6.18,11.74-16.85s-4.29-16.95-11.49-16.95m-38.21.37c-6.66,0-10.79,6.36-10.79,16.89s4.06,16.53,10.91,16.53,10.84-6.48,10.84-16.65-4.24-16.78-10.96-16.78m-39.77,0c-6.66,0-10.78,6.36-10.78,16.89s4.05,16.53,10.9,16.53,10.84-6.48,10.84-16.65-4.24-16.78-10.97-16.78"/>
      <path id="path2608" class="cls-7" d="m181.46,121.75c-69.04,0-125,55.96-125,125,0,69.04,55.96,125,125,125s125-55.96,125-125c0-69.04-55.96-125-125-125Zm0,41.67c46.03,0,83.33,37.31,83.33,83.33,0,46.02-37.3,83.33-83.33,83.33s-83.33-37.31-83.33-83.33c0-46.02,37.3-83.33,83.33-83.33Zm0,41.67c-23.01,0-41.67,18.66-41.67,41.67,0,23.01,18.65,41.67,41.67,41.67s41.67-18.65,41.67-41.67c0-23.01-18.65-41.67-41.67-41.67Zm102.94,137.25c-4,0-7.35,3.14-7.35,7.35,0,4.26,3.36,7.35,7.35,7.35s7.35-3.1,7.35-7.35c0-4.21-3.41-7.35-7.35-7.35Zm0,1.23c3.28,0,5.88,2.64,5.88,6.13,0,3.54-2.6,6.13-5.88,6.13s-5.88-2.59-5.88-6.13c0-3.49,2.55-6.13,5.88-6.13Zm-2.82,1.9v8.46h1.29v-3.68h1.47l2.21,3.68h1.41l-2.39-3.74c1.2-.17,2.21-.81,2.21-2.33,0-1.68-.98-2.39-2.94-2.39h-3.25Zm1.29,1.1h1.72c.88,0,1.84.18,1.84,1.23,0,1.3-.94,1.35-2.02,1.35h-1.53v-2.57Z"/>
      <g>
        <path class="cls-3" d="m1494.06,246.93c.06-.02-13.2-122.4-13.2-122.4l-.36-3.21-3.21.71-230.17,61.74-2.85.71,1.07,2.85,49.96,112.77c3.93,8.8,9.91,16.68,26.05,16.06.08.1,42.57-2.09,51.74-2.5l11.78,55.67.36,2.85,2.85-.71,61.02-16.42,2.85-.71-.71-2.85-17.84-53.88,46.03-23.55c14.23-7.76,15.48-17.59,14.63-27.12h0Z"/>
        <path class="cls-4" d="m1376.3,304.03c-.85-3.75-.68-6.73.71-8.92,1.19-2.28,3.68-3.9,7.14-5l27.83-7.14c7.15-2.07,11.62.51,13.56,7.85l19.63,59.95-55.67,14.63-13.2-61.38h0Z"/>
        <path class="cls-4" d="m1476.93,269.05c-.02.12-35.79,18.4-45.32,23.2l-1.07-3.21v.36c-2.55-10.18-9.91-14.44-19.98-11.78l-27.48,7.49c-5.2,1.3-8.78,3.76-10.71,7.14-2.1,3.59-2.46,8.05-1.07,13.2v-.36l.71,3.21-51.03,2.5c-12.18.5-17.09-4.54-21.05-12.85.08.11-40.56-92.28-48.18-109.91l224.1-59.95,12.85,119.55c.83,8.89-.9,15.7-11.78,21.41Z"/>
        <path class="cls-3" d="m1413.77,347.21c5.2-1.24,8.41-6.47,7.16-11.67,0-.04-.02-.07-.03-.11-.77-2.51-2.42-4.66-4.64-6.07-2.31-1.21-5-1.46-7.49-.71-2.41.59-4.47,2.14-5.71,4.28-1.38,2.38-1.72,5-1.07,7.49.69,2.53,2.3,4.63,4.64,6.07,2.18,1.2,4.76,1.45,7.14.71h0Z"/>
        <path class="cls-4" d="m1403.78,340.07c-.59-2.14-.31-4.28.71-6.07,1.04-1.89,2.87-3.2,5-3.57,1.91-.73,4.05-.44,5.71.71,2.02.96,3.33,2.68,3.93,4.64,1.08,4.31-1.43,8.68-5.71,9.64-2,.73-4.14.44-6.07-.71-1.77-1-3.06-2.67-3.57-4.64Z"/>
        <path class="cls-3" d="m1438.39,158.07c8.37-2.38,17.09,2.47,19.47,10.84.05.19.11.38.15.58l8.56,31.76c2.38,8.52-2.71,17.32-11.42,19.63l-14.63,3.93,7.85,28.55-18.56,5-24.62-91.35,33.19-8.92h0Zm-69.23,116.33l18.2-5-2.5-20.7,14.27-3.93,8.56,19.27,18.56-5-39.61-87.07-29.62,7.85,12.13,94.57Zm-52.81,14.27l34.26-9.28c8.43-2.28,13.41-10.96,11.13-19.39-.02-.08-.04-.16-.07-.24l-16.06-60.31c-2.26-8.57-11.04-13.68-19.61-11.42,0,0-.01,0-.02,0l-33.9,9.28,24.27,91.35h0Z"/>
        <path class="cls-4" d="m1436.25,208.39l6.78-1.78c2.65-.7,4.28-3.52,3.57-6.42l-5.35-19.98c-.83-2.84-3.64-4.46-6.42-3.57l-6.78,1.78,8.21,29.98h0Zm-42.82,23.55l-10.71,2.85-5-38.18,15.7,35.33Zm-62.81,35.33l7.49-2.14c2.62-.61,4.24-3.23,3.63-5.85-.02-.07-.04-.15-.06-.22l-12.85-48.89c-.86-2.7-3.67-4.27-6.42-3.57l-7.49,2.14,15.7,58.53h0Z"/>
        <path class="cls-3" d="m1405.56,316.87c5.27-1.45,8.43-6.82,7.14-12.13-.77-2.43-2.38-4.53-4.64-5.71-2.23-1.4-4.96-1.79-7.49-1.07-5.09,1.43-8.1,6.66-6.78,11.78.7,2.62,2.31,4.72,4.64,6.07,2.17,1.25,4.79,1.6,7.14,1.07h0Z"/>
        <path class="cls-4" d="m1395.57,309.38c-1.15-4.13,1.28-8.41,5.41-9.56.1-.03.2-.05.3-.08,1.92-.62,4.06-.34,6.07.71,1.67,1.06,2.98,2.77,3.57,5,1.09,4.06-1.43,8.42-5.71,9.64-2.05.44-4.18.19-6.07-.71-1.75-1.18-3.02-2.96-3.57-5h0Z"/>
        <path class="cls-3" d="m1469.73,248.23c4.69-1.27,7.46-6.11,6.19-10.8-1.27-4.69-6.11-7.46-10.8-6.19-.08.02-.16.04-.24.07-4.65,1.41-7.29,6.32-5.88,10.97,1.38,4.56,6.14,7.2,10.73,5.95h0Zm-.32-1.12c-4.13,1.18-8.06-1.18-9.25-5.33-1.17-4.11.93-8.18,5.06-9.37,4.11-1.17,8.02,1.2,9.19,5.31,1.19,4.16-.89,8.23-5,9.4h0Zm-.63-7.38c1.67-.52,2.76-1.59,2.23-3.44-.45-1.56-1.56-2.26-4.07-1.55l-4.13,1.18,2.69,9.45,1.16-.33-1.24-4.35,2.12-.61,3.95,3.59,1.38-.39-4.09-3.54h0Zm-3.61.04l-.96-3.35,2.71-.77c1.16-.33,2.41-.49,2.84.98.55,1.92-1.48,2.25-2.82,2.64l-1.77.49h0Z"/>
      </g>
      <g>
        <path class="cls-4" d="m1129.84,284.75c-9.75,10.22-22.75,15.82-36.49,15.82h-239.21c-13.75,0-26.75-5.6-36.53-15.82-9.72-10.2-15.09-23.78-15.09-38.24,0-29.79,23.16-54.03,51.61-54.03h239.21c13.74,0,26.74,5.61,36.49,15.84,9.72,10.18,15.08,23.78,15.08,38.19s-5.36,28.03-15.08,38.24"/>
        <path class="cls-8" d="m1127.4,282.67c-9.61,9.58-22.39,14.87-35.9,14.87h-235.32c-13.57,0-26.31-5.29-35.91-14.87-9.59-9.61-14.89-22.36-14.89-35.93,0-28.03,22.79-50.77,50.8-50.77h235.32c13.52,0,26.3,5.25,35.9,14.84,9.57,9.61,14.9,22.35,14.9,35.93s-5.33,26.31-14.9,35.93m4.19-76.04c-10.71-10.71-24.94-16.58-40.1-16.58h-235.32c-31.26,0-56.72,25.39-56.72,56.69,0,15.13,5.9,29.39,16.64,40.08,10.7,10.72,24.92,16.64,40.08,16.64h235.32c15.16,0,29.39-5.91,40.1-16.64,10.71-10.68,16.59-24.95,16.59-40.08s-5.88-29.39-16.59-40.11"/>
        <path class="cls-8" d="m1091.5,201.02h-235.33c-25.22,0-45.66,20.46-45.66,45.71s20.44,45.71,45.66,45.71h235.33c25.23,0,45.66-20.48,45.66-45.71s-20.43-45.71-45.66-45.71"/>
        <path class="cls-6" d="m1143.44,302.4c3.27,0,6.02-2.51,6.02-5.95s-2.75-5.89-6.02-5.89-6.04,2.49-6.04,5.89,2.76,5.95,6.04,5.95m-4.83-5.95c0-2.78,2.14-4.96,4.83-4.96s4.82,2.18,4.82,4.96-2.12,4.97-4.82,4.97-4.83-2.1-4.83-4.97m3.56.49h1.19l1.81,2.95h1.17l-1.9-2.99c.98-.18,1.75-.7,1.75-1.91,0-1.33-.8-1.95-2.43-1.95h-2.61v6.85h1.01v-2.95Zm0-.92v-2.12h1.45c.7,0,1.47.23,1.47,1.03,0,1.08-.77,1.09-1.65,1.09h-1.27Z"/>
        <g>
          <path class="cls-4" d="m846.95,221.37h25.89l-.68,23.3h15.76l-.98-22.98h25.21l-2.33,51.54h-21.22l-.67-17.97h-16.06l-.31,17.67h-21.97l-2.64-51.55Z"/>
          <path class="cls-4" d="m945.04,222.01h64.51l-.67,14.21h-38.59v8.78h27.69l-.34,10.26-27.7-.02v8.78h37.64l-.35,9.55h-59.84l-2.35-51.56Z"/>
          <path class="cls-4" d="m920.27,245.36h15.88v9.58h-15.57l-.31-9.58Z"/>
          <path class="cls-4" d="m1017.16,255.26h15.24v-9.91h-15.24v9.91Z"/>
          <path class="cls-4" d="m1043.77,273.9l-2.32-51.9h48.69c9.51,0,16.75,5.66,16.75,14.82,0,10.1-8.04,13.54-10.89,13.74l.04.41c4.77,1.05,7.69,3.53,7.69,9.83,0,12.42-11.77,13.14-18.04,13.14l-41.93-.04"/>
        </g>
        <path class="cls-8" d="m1066.93,264.54v-9.49h8.84c2.66,0,5.28,1.52,5.28,4.63s-3.35,4.85-6.95,4.85h-7.16Z"/>
        <path class="cls-8" d="m1067.11,246.25v-10.91h8.81c3.53,0,7.04,2,7.04,5.63,0,3.02-4.11,5.37-7.75,5.28-3.06-.07-8.09,0-8.09,0"/>
      </g>
      <g id="layer1">
        <g id="g1470">
          <path id="path573" class="cls-1" d="m1823.55,212.01c-13.25-40.26-41.76-83-111.58-89.11h0c-63.58-7.79-122.24,23.39-130.9,101.1-7.25,65.01,10.16,121.98,76.14,138.94h0c50.69,14.67,102.14,11.16,134.89-11.32,7.15-4.38,13.01-9.99,17.82-16.46,8.14-10.25,13.7-22.67,15.93-37.31h0c7.62-34.93,1.76-73.54-2.28-85.84"/>
          <path id="path577" class="cls-4" d="m1647.01,253.04c-1.77-.44-4.74-1.54-4.74-3.94s1.99-4.04,4.83-4.04c2.12,0,4.06,1.09,5.19,2.92.16.27.27.43.37.59v.02s.03.02.03.02c.23.23.5.35.8.35.25,0,.51-.09.77-.26l.94-.57c.61-.37.78-1.03.42-1.69-1.79-3.17-4.65-4.78-8.51-4.78-4.99,0-8.33,2.99-8.33,7.44,0,3.56,2.89,6.37,7.74,7.54,2.86.66,6.26,2.04,6.26,4.84s-3.41,4.25-5.83,4.25c-1.92,0-4.52-1.22-5.54-3.27l-.17-.28c-.2-.46-.59-.74-1.06-.74-.15,0-.32.03-.48.09l-1.03.48c-.63.25-.93.91-.73,1.6,1.25,3.44,4.7,5.57,9.01,5.57,6.45,0,9.39-4.02,9.39-7.76,0-4.03-3.05-6.77-9.32-8.38"/>
          <path id="path581" class="cls-4" d="m1666.66,234.43l-1.3-.21c-.07-.01-.14-.02-.2-.02-.36,0-.64.17-.8.5-.11.22-.16.52-.16.9v6.64h-3.35c-.6,0-1.28.14-1.28,1.23v.95c0,1.09.68,1.23,1.28,1.23h3.35v15.89c0,5.07,2.03,7.34,6.6,7.34h.79c.42,0,1.54,0,1.54-1.07v-1.37c0-1.07-.94-1.07-1.39-1.07h-1c-1.98-.19-2.94-.92-2.94-4.56v-15.15h4.3c.83,0,1.33-.48,1.33-1.28v-.84c0-.82-.47-1.28-1.33-1.28h-4.3v-6.64c0-.67-.43-1.11-1.15-1.17"/>
          <path id="path585" class="cls-4" d="m1689.71,245.43c1.54,0,3.06.85,3.64,1.22.14.11.39.18.63.18.35,0,.65-.14.85-.41l.8-1.17c.21-.33.41-1-.58-1.84-1.18-.86-3.47-1.54-5.13-1.54-2.89,0-5.34,1.29-6.64,3.44l-.03-1.74c-.04-.46-.12-1.28-1.07-1.28h-1.32c-.99,0-1.12.8-1.12,1.49v23.64c0,.54.21,1.18,1.23,1.18h1.11c.79,0,1.23-.43,1.23-1.23v-14.22c0-4.77,3.33-7.72,6.41-7.72"/>
          <path id="path589" class="cls-4" d="m1697.85,255.47c0,7.56,5.8,13.7,12.92,13.7,3.39,0,6.57-1.28,9.45-3.81.91-.79,1.01-1.28.4-2.02l-.62-.88c-.22-.26-.5-.38-.81-.38-.35,0-.7.16-.99.45-1.97,2.02-4.66,3.18-7.39,3.18h-.1c-4.87-.15-8.79-3.94-9.23-8.86h19.07c.58,0,2.33,0,2.33-1.86,0-7.2-5.65-13.29-12.34-13.29s-12.71,6.17-12.71,13.76m12.6-10.2c4.35,0,8.11,3.47,8.84,8.13h-17.67c.88-4.73,4.55-8.13,8.83-8.13"/>
          <path id="path593" class="cls-4" d="m1749.37,265.37c.91-.79,1-1.28.4-2.02l-.62-.88c-.22-.25-.5-.38-.81-.38-.35,0-.7.16-.99.45-1.97,2.02-4.66,3.18-7.39,3.18h-.1c-4.87-.15-8.79-3.94-9.23-8.86h19.07c.58,0,2.33,0,2.33-1.86,0-7.2-5.65-13.29-12.34-13.29s-12.71,6.17-12.71,13.76,5.8,13.71,12.92,13.71c3.39,0,6.57-1.28,9.45-3.81m-9.77-20.1c4.35,0,8.1,3.47,8.84,8.13h-17.67c.88-4.73,4.55-8.13,8.83-8.13"/>
          <path id="path597" class="cls-4" d="m1766.71,268.86c.42,0,1.54,0,1.54-1.07v-1.37c0-1.07-.94-1.07-1.39-1.07h-1c-1.98-.19-2.94-.92-2.94-4.56v-15.15h4.3c.83,0,1.33-.48,1.33-1.28v-.84c0-.83-.47-1.28-1.33-1.28h-4.3v-6.64c0-.67-.43-1.11-1.15-1.17l-1.3-.21c-.07-.01-.14-.01-.2-.01-.36,0-.64.17-.8.5-.11.22-.16.52-.16.9v6.64h-3.35c-.6,0-1.28.14-1.28,1.23v.95c0,1.09.68,1.23,1.28,1.23h3.35v15.88c0,5.07,2.03,7.34,6.6,7.34h.79Z"/>
          <path id="path601" class="cls-4" d="m1683.15,224.28l-.62-.88c-.22-.25-.5-.38-.81-.38-.35,0-.7.16-.99.45-1.97,2.02-4.66,3.18-7.39,3.18h-.1c-4.87-.15-8.79-3.94-9.23-8.86h19.07c.58,0,2.33,0,2.33-1.86,0-7.2-5.65-13.29-12.34-13.29s-12.71,6.17-12.71,13.76,5.8,13.71,12.92,13.71c3.39,0,6.57-1.28,9.45-3.81.91-.79,1-1.28.4-2.02m-10.17-18.08c4.35,0,8.1,3.47,8.84,8.13h-17.67c.88-4.73,4.55-8.13,8.83-8.13"/>
          <path id="path605" class="cls-4" d="m1689.75,221.61c0,2.41.88,4.59,2.48,6.13,1.74,1.68,4.26,2.57,7.28,2.57,5.28,0,7.39-2.66,8.79-5l.04,2.93c0,.85.4,1.28,1.18,1.28h1.16c.6,0,1.07-.52,1.07-1.18v-15.11c0-7.24-5.44-11.02-10.81-11.02-3.62,0-7.22,1.47-9.62,3.93-.65.73-.32,1.29-.01,1.64l.68.68c.2.29.46.35.65.35.31,0,.66-.17,1.11-.52,1.58-1.34,3.53-2.57,7.2-2.57,4.07,0,7.28,3.52,7.4,8.07h-8.98c-6.63,0-9.6,3.92-9.6,7.81m18.69-4.62c-.12,6.81-4.6,9.92-8.77,9.92-4.73,0-6.41-2.68-6.41-5.19,0-3.09,2.36-4.72,6.83-4.72h8.35Z"/>
          <path id="path609" class="cls-4" d="m1753.54,230.11c3.39,0,6.57-1.28,9.45-3.81.91-.79,1-1.28.4-2.02l-.62-.88c-.22-.25-.5-.38-.81-.38-.35,0-.7.16-.99.45-1.97,2.02-4.66,3.18-7.39,3.18h-.1c-4.87-.15-8.79-3.94-9.23-8.87h19.07c.58,0,2.33,0,2.33-1.86,0-7.2-5.65-13.29-12.34-13.29s-12.71,6.17-12.71,13.76,5.8,13.7,12.92,13.7m-.32-23.9c4.35,0,8.1,3.47,8.84,8.13h-17.67c.88-4.73,4.55-8.13,8.83-8.13"/>
          <path id="path613" class="cls-4" d="m1785.51,204.34c-1.18-.86-3.47-1.54-5.13-1.54-2.89,0-5.34,1.29-6.64,3.44l-.03-1.74c-.04-.46-.12-1.28-1.07-1.28h-1.32c-.99,0-1.12.8-1.12,1.49v23.64c0,.54.21,1.17,1.23,1.17h1.11c.79,0,1.23-.43,1.23-1.23v-14.22c0-4.77,3.33-7.73,6.41-7.73,1.54,0,3.06.85,3.64,1.22.14.11.39.18.63.18.35,0,.65-.15.85-.41l.8-1.17c.21-.33.41-1-.58-1.84"/>
          <path id="path617" class="cls-4" d="m1643.38,216.51l-1.87,4.44,3.13,7.69c.24.61.49.91,1.2.91h1c.77,0,1.02-.29,1.26-.91l10-23.85c.24-.6.12-.97-.02-1.17-.12-.17-.35-.37-.82-.37h-1.68c-.38,0-.75.23-.98.61v.02s-.02.02-.02.02l-8.26,19.86-2.96-7.24Z"/>
          <path id="path621" class="cls-4" d="m1645.33,195.33c-.72-3.03-2.54-5.63-5.13-7.33-.49-.34-.83-.51-1.01-.51-.16,0-.25,0-1.02.52-2.58,1.69-4.4,4.29-5.12,7.32-.76,3.21.06,5.42,1.2,8.48l3.08,7.06-5.23,12.78-8.27-19.86c-.13-.34-.48-.54-.94-.54h-1.68c-.43,0-.73.12-.9.37-.11.16-.21.45-.05.9l10.11,24.13c.24.61.49.91,1.21.91h1.05c.78,0,.99-.38,1.21-.91l10.16-24.51c1.26-3.38,2.08-5.59,1.33-8.8m-4.47,7.8l-1.67,4.08-1.58-3.85c-1.24-3.34-1.81-4.86-1.26-7.2.44-1.88,1.42-3.53,2.84-4.79,1.42,1.26,2.4,2.91,2.84,4.79.55,2.34-.03,3.89-1.18,6.98"/>
          <path id="path625" class="cls-4" d="m1725.08,228.2l.04.11.13.31c.26.65.64.91,1.36.91h.79c.68,0,1.06-.26,1.31-.91l10-23.85c.24-.54.27-.92.09-1.19-.23-.35-.71-.35-.87-.35h-1.68c-.47,0-.77.16-.98.5v.02s-.02.02-.02.02l-8.53,20.48-1.6,3.85-.04.11Z"/>
          <path id="path629" class="cls-4" d="m1722.86,222.93l1.91-4.58-6.04-14.59c-.14-.35-.48-.54-.94-.54h-1.69c-.28,0-.68.04-.89.34-.18.26-.17.64.05,1.2l7.61,18.17Z"/>
          <path id="path633" class="cls-4" d="m1703.71,288.02c0-4.27-3.45-7.74-7.68-7.74h-8.4c-.86,0-1.47.59-1.47,1.43v20.63c0,.86.6,1.46,1.47,1.46h.61c.88,0,1.46-.59,1.46-1.46v-6.62h6.18c.24,0,.47-.01.7-.04l3.3,7.32c.25.51.7.8,1.22.8h1.02c.49,0,.91-.23,1.15-.63.23-.39.23-.89.02-1.27l-3.3-7.28c2.3-1.39,3.71-3.89,3.71-6.6m-8.18,4.17h-5.83v-8.36h6.27c2.35,0,4.2,1.84,4.2,4.2,0,2.74-2.33,4.17-4.63,4.17"/>
          <path id="path637" class="cls-4" d="m1728.06,282.46c.35-.35.46-.86.28-1.31-.18-.44-.61-.73-1.1-.73h-1.17c-.44,0-.82.19-1.16.57l-10.35,11v-10.27c0-.75-.53-1.3-1.27-1.3h-.75c-.74,0-1.27.54-1.27,1.3v20.66c0,.76.52,1.29,1.27,1.29h.79c.73,0,1.24-.53,1.24-1.29v-5.58l4.05-4.3h0l9.45-10.03Z"/>
          <path id="path641" class="cls-4" d="m1754.2,300.27h-12.25v-6.94h9.47c.87,0,1.5-.59,1.5-1.4v-.76c0-.81-.63-1.4-1.5-1.4h-9.47v-5.94h12.04c.83,0,1.44-.59,1.44-1.4v-.79c0-.67-.45-1.35-1.44-1.35h-14.18c-.84,0-1.41.57-1.41,1.41v20.71c0,.84.57,1.4,1.41,1.4h14.39c.99,0,1.44-.7,1.44-1.35v-.87c0-.74-.63-1.32-1.44-1.32"/>
          <path id="path645" class="cls-4" d="m1779.77,280.29h-15.26c-.85,0-1.47.61-1.47,1.46v.59c0,.92.58,1.52,1.47,1.52h5.88v18.49c0,.85.62,1.46,1.47,1.46h.61c.85,0,1.46-.61,1.46-1.46v-18.49h5.83c.88,0,1.52-.61,1.52-1.46v-.64c0-.83-.65-1.46-1.52-1.46"/>
          <path id="path649" class="cls-4" d="m1723.3,293.13l-2.41,2.57,6.14,7.44c.15.17.6.67,1.29.67h1.2c.53,0,1.02-.31,1.23-.78.21-.47.11-1.02-.23-1.4l-7.21-8.49Z"/>
          <path id="path653" class="cls-4" d="m1670.34,281.23c-.24-.6-.75-.97-1.37-.97h-.55c-.61,0-1.13.37-1.37.96l-8.64,20.66c-.26.67-.05,1.14.1,1.36.24.36.66.58,1.12.58h.9c.46,0,1.04-.26,1.31-1l1.83-4.43h9.91l1.83,4.46c.25.6.74.96,1.31.96h.88c.49,0,.94-.23,1.18-.61.15-.23.34-.71.05-1.34l-8.51-20.63Zm-5.19,13.62l3.5-8.47,3.48,8.47h-6.97Z"/>
          <path id="path657" class="cls-4" d="m1638.71,296.8l6.96-15.56c.3-.71.86-.78,1.09-.78h.99c.71,0,1.24.47,1.32,1.16l2.66,20.7c.02.2.06.68-.28,1.04-.12.13-.38.34-.84.34h-.9c-.73,0-1.23-.46-1.29-1.2l-2.01-15.01-6.15,13.87c-.27.54-.77.73-1.15.73h-.82c-.48,0-.9-.28-1.13-.76l.12-.06-.13.05-.2-.44"/>
          <path id="path661" class="cls-4" d="m1625.7,302.33l2.63-20.72c.07-.7.58-1.16,1.29-1.16h1.08c.37,0,.86.22,1.14.83l4.65,10.46-1.79,4-3.67-8.2-2.03,15c-.07.73-.55,1.16-1.29,1.16h-.79c-.47,0-.76-.2-.92-.37-.23-.26-.33-.59-.29-1"/>
        </g>
      </g>
    </g>
    <g>
      <path class="cls-3" d="m739.78,101.86l-12.89-38.59c-.58-1.78-1.03-3.3-1.37-4.57-.34-1.27-.55-2.34-.65-3.2-.82.05-1.57.08-2.27.11-.7.02-1.36.06-1.98.11v-4.75h20.02v3.96c-2.11,0-3.54.43-4.28,1.3-.74.86-.78,2.5-.11,4.9.72,2.88,1.49,5.66,2.3,8.35.82,2.69,1.61,5.42,2.38,8.21.53,1.82,1.02,3.52,1.48,5.08.46,1.56.95,3.49,1.48,5.8h.14c.19-.72.46-1.7.79-2.95.34-1.25.71-2.54,1.12-3.89.41-1.34.77-2.58,1.08-3.71.31-1.13.54-1.96.68-2.48.96-3.07,1.91-6.08,2.84-9.04.94-2.95,1.82-5.76,2.66-8.42.84-2.66,1.57-5.05,2.2-7.16h5.04c.62,2.02,1.3,4.17,2.02,6.44.72,2.28,1.46,4.61,2.23,6.98.77,2.38,1.51,4.7,2.23,6.98.72,2.28,1.39,4.38,2.02,6.3.58,1.82,1.12,3.67,1.62,5.54.5,1.87,1,3.77,1.48,5.69h.14c.43-1.49.88-3.05,1.33-4.68.46-1.63.95-3.31,1.48-5.04.62-2.02,1.18-3.84,1.66-5.47.48-1.63.92-3.13,1.33-4.5.41-1.37.78-2.66,1.12-3.89.34-1.22.67-2.44,1.01-3.64.29-1.06.66-2.15,1.12-3.28.46-1.13,1-2.08,1.62-2.84-.82.05-1.79.08-2.92.11-1.13.02-2.03.06-2.7.11v-4.75h15.7v3.96c-1.25.1-2.34.4-3.28.9s-1.79,1.37-2.56,2.59c-.77,1.22-1.51,2.96-2.23,5.22-2.02,6.43-4.03,12.83-6.05,19.19-2.02,6.36-4.06,12.71-6.12,19.04h-4.97l-9.36-27.58c-.53-1.68-1-3.31-1.4-4.9-.41-1.58-.83-3.12-1.26-4.61-.29,1.49-.61,2.93-.97,4.32-.36,1.39-.76,2.83-1.19,4.32l-8.93,28.44h-4.82Z"/>
      <path class="cls-3" d="m809.05,102.51c-3.41,0-6.5-.76-9.29-2.27-2.78-1.51-4.98-3.65-6.59-6.41-1.61-2.76-2.41-5.99-2.41-9.68,0-3.89.82-7.34,2.45-10.37,1.63-3.02,3.83-5.38,6.59-7.06,2.76-1.68,5.8-2.52,9.11-2.52s6.48.77,9.22,2.3c2.74,1.54,4.91,3.67,6.52,6.41,1.61,2.74,2.41,5.98,2.41,9.72,0,3.94-.78,7.4-2.34,10.4-1.56,3-3.7,5.33-6.41,6.98-2.71,1.66-5.8,2.48-9.25,2.48Zm.36-4.39c2.16,0,3.82-.67,4.97-2.02,1.15-1.34,1.96-3.06,2.41-5.15.46-2.09.68-4.24.68-6.44,0-1.87-.16-3.77-.47-5.69-.31-1.92-.8-3.66-1.48-5.22-.67-1.56-1.56-2.81-2.66-3.74-1.1-.94-2.45-1.4-4.03-1.4-2.11.05-3.79.74-5.04,2.09-1.25,1.34-2.15,3.05-2.7,5.11-.55,2.06-.83,4.25-.83,6.55,0,2.59.31,5.12.94,7.6.62,2.47,1.61,4.49,2.95,6.05,1.34,1.56,3.1,2.32,5.26,2.27Z"/>
      <path class="cls-3" d="m832.52,97.54c1.39,0,2.38-.3,2.95-.9.58-.6.94-1.45,1.08-2.56.14-1.1.22-2.35.22-3.74v-13.54c0-.86.02-1.78.07-2.74.05-.96.12-1.94.22-2.95-.82.05-1.7.08-2.66.11-.96.02-1.75.06-2.38.11v-4.61h2.66c1.92,0,3.53-.23,4.82-.68,1.3-.46,2.21-.92,2.74-1.4h3.02c.1.58.17,1.49.22,2.74.05,1.25.07,2.5.07,3.74,1.1-1.44,2.26-2.67,3.46-3.71,1.2-1.03,2.44-1.82,3.71-2.38,1.27-.55,2.58-.83,3.92-.83,1.54,0,2.89.43,4.07,1.3,1.18.86,1.76,2.26,1.76,4.18,0,.62-.16,1.3-.47,2.02-.31.72-.79,1.32-1.44,1.8-.65.48-1.52.72-2.63.72-1.01,0-1.96-.32-2.84-.97-.89-.65-1.36-1.69-1.4-3.13-1.01-.05-2.05.31-3.13,1.08-1.08.77-2.05,1.7-2.92,2.81-.86,1.1-1.54,2.23-2.02,3.38l.07,13.68c0,.77-.02,1.69-.07,2.77-.05,1.08-.12,2.12-.22,3.13.77-.1,1.58-.16,2.45-.18.86-.02,1.58-.04,2.16-.04v4.61h-17.5v-3.82Z"/>
      <path class="cls-3" d="m864.41,101.36v-3.82c1.39,0,2.39-.3,2.99-.9s.97-1.45,1.12-2.56c.14-1.1.22-2.35.22-3.74v-31.1c0-.82.02-1.72.07-2.7.05-.98.12-2,.22-3.06-.82.05-1.7.1-2.66.14-.96.05-1.78.1-2.45.14v-4.68c2.21,0,4.01-.11,5.4-.32,1.39-.22,2.48-.49,3.28-.83.79-.34,1.36-.65,1.69-.94h3.31v33.26h3.24l6.41-7.06c.67-.72,1.26-1.36,1.76-1.91.5-.55,1.02-1.02,1.55-1.4l-4.18.07v-4.61h15.12v3.82c-1.63.14-3.12.56-4.46,1.26-1.34.7-2.52,1.5-3.53,2.41-1.01.91-1.9,1.78-2.66,2.59l-4.9,5.47c.77.34,1.5.84,2.2,1.51.69.67,1.5,1.58,2.41,2.74l4.9,6.41c.29.34.68.83,1.19,1.48.5.65,1.08,1.32,1.73,2.02.65.7,1.36,1.28,2.12,1.76.77.48,1.54.72,2.3.72v3.82h-7.7c-1.49,0-2.82-.59-4-1.76-1.18-1.18-2.48-2.72-3.92-4.64-.96-1.34-1.92-2.7-2.88-4.07-.96-1.37-1.84-2.62-2.63-3.74-.79-1.13-1.45-2-1.98-2.63l-2.09.07v6.48c0,.77-.02,1.69-.07,2.77-.05,1.08-.12,2.12-.22,3.13.77-.1,1.58-.16,2.45-.18.86-.02,1.61-.04,2.23-.04v4.61h-17.57Z"/>
      <path class="cls-3" d="m941.74,102.51c-2.21,0-4.27-.29-6.19-.86-1.92-.58-3.46-1.27-4.61-2.09l.22,2.3h-4.68l-.36-12.38h3.89c.14,1.63.72,3.11,1.73,4.43,1.01,1.32,2.32,2.35,3.92,3.1,1.61.74,3.4,1.12,5.36,1.12.96,0,1.88-.14,2.77-.43.89-.29,1.63-.76,2.23-1.4.6-.65.9-1.48.9-2.48s-.35-1.92-1.04-2.59c-.7-.67-1.67-1.3-2.92-1.87-1.25-.58-2.71-1.18-4.39-1.8-1.49-.58-2.98-1.18-4.46-1.8-1.49-.62-2.86-1.38-4.1-2.27-1.25-.89-2.26-1.98-3.02-3.28-.77-1.3-1.15-2.88-1.15-4.75,0-1.3.24-2.59.72-3.89.48-1.3,1.25-2.51,2.3-3.64,1.06-1.13,2.41-2.03,4.07-2.7,1.66-.67,3.68-1.01,6.08-1.01,1.3,0,2.76.2,4.39.61,1.63.41,3.07,1.09,4.32,2.05l-.07-2.3h4.68v12.67h-3.89c-.24-1.68-.77-3.18-1.58-4.5-.82-1.32-1.9-2.36-3.24-3.13-1.34-.77-2.95-1.15-4.82-1.15-1.54,0-2.83.37-3.89,1.12-1.06.74-1.58,1.84-1.58,3.28,0,1.2.41,2.19,1.22,2.95.82.77,1.92,1.42,3.31,1.94,1.39.53,2.9,1.1,4.54,1.73,2.26.77,4.31,1.68,6.16,2.74,1.85,1.06,3.32,2.33,4.43,3.82,1.1,1.49,1.66,3.34,1.66,5.54,0,2.5-.62,4.55-1.87,6.16-1.25,1.61-2.86,2.81-4.82,3.6-1.97.79-4.03,1.19-6.19,1.19Z"/>
      <path class="cls-3" d="m977.38,102.51c-3.46,0-6.53-.78-9.22-2.34-2.69-1.56-4.78-3.77-6.26-6.62-1.49-2.86-2.23-6.23-2.23-10.12,0-3.36.74-6.5,2.23-9.43,1.49-2.93,3.59-5.29,6.3-7.09,2.71-1.8,5.87-2.7,9.47-2.7,2.02,0,3.96.29,5.83.86,1.87.58,3.55,1.54,5.04,2.88,1.49,1.34,2.68,3.12,3.56,5.33.89,2.21,1.31,4.9,1.26,8.06l-24.19.43c0,2.98.35,5.6,1.04,7.88.7,2.28,1.84,4.08,3.42,5.4,1.58,1.32,3.67,1.98,6.26,1.98,1.15,0,2.39-.2,3.71-.61,1.32-.41,2.63-1.03,3.92-1.87,1.3-.84,2.45-1.88,3.46-3.13l2.74,2.52c-1.58,2.3-3.34,4.08-5.26,5.33-1.92,1.25-3.84,2.1-5.76,2.56-1.92.46-3.7.68-5.33.68Zm-7.85-25.06h14.98c-.05-1.92-.32-3.54-.83-4.86-.5-1.32-1.24-2.33-2.2-3.02-.96-.7-2.14-1.04-3.53-1.04-2.35,0-4.24.78-5.65,2.34-1.42,1.56-2.34,3.76-2.77,6.59Z"/>
      <path class="cls-3" d="m1016.04,102.51c-3.46,0-6.53-.78-9.22-2.34s-4.78-3.77-6.26-6.62c-1.49-2.86-2.23-6.23-2.23-10.12,0-3.36.74-6.5,2.23-9.43,1.49-2.93,3.59-5.29,6.3-7.09,2.71-1.8,5.87-2.7,9.47-2.7,2.02,0,3.96.29,5.83.86,1.87.58,3.55,1.54,5.04,2.88,1.49,1.34,2.68,3.12,3.56,5.33.89,2.21,1.31,4.9,1.26,8.06l-24.19.43c0,2.98.35,5.6,1.04,7.88.7,2.28,1.84,4.08,3.42,5.4,1.58,1.32,3.67,1.98,6.26,1.98,1.15,0,2.39-.2,3.71-.61,1.32-.41,2.63-1.03,3.92-1.87,1.3-.84,2.45-1.88,3.46-3.13l2.74,2.52c-1.58,2.3-3.34,4.08-5.26,5.33-1.92,1.25-3.84,2.1-5.76,2.56-1.92.46-3.7.68-5.33.68Zm-7.85-25.06h14.98c-.05-1.92-.32-3.54-.83-4.86-.5-1.32-1.24-2.33-2.2-3.02-.96-.7-2.14-1.04-3.53-1.04-2.35,0-4.24.78-5.65,2.34-1.42,1.56-2.34,3.76-2.77,6.59Z"/>
      <path class="cls-3" d="m1037.64,101.36v-3.82c1.39,0,2.38-.3,2.95-.9.58-.6.94-1.45,1.08-2.56.14-1.1.22-2.35.22-3.74v-13.54c0-.86.02-1.78.07-2.74.05-.96.12-1.94.22-2.95-.77.05-1.64.1-2.63.14-.98.05-1.79.1-2.41.14v-4.68c2.16,0,3.94-.11,5.33-.32,1.39-.22,2.47-.49,3.24-.83.77-.33,1.32-.65,1.66-.94h3.02c.1.53.14.96.14,1.3s.02.68.07,1.04c.05.36.12.88.22,1.55.96-.82,2.08-1.55,3.35-2.2,1.27-.65,2.56-1.16,3.85-1.55,1.3-.38,2.5-.58,3.6-.58,4.32,0,7.42,1.27,9.29,3.82,1.87,2.54,2.81,6.6,2.81,12.17v10.87c0,.77-.01,1.69-.04,2.77s-.11,2.12-.25,3.13c.82-.1,1.66-.16,2.52-.18.86-.02,1.58-.04,2.16-.04v4.61h-17.5v-3.82c1.39,0,2.39-.3,2.99-.9.6-.6.97-1.45,1.12-2.56.14-1.1.22-2.35.22-3.74l-.07-10.22c0-3.46-.52-6.04-1.55-7.74-1.03-1.7-2.73-2.56-5.08-2.56-1.39.05-2.76.38-4.1,1.01-1.34.62-2.47,1.42-3.38,2.38.05.58.07,1.18.07,1.8v1.87l-.07,14.18c0,.77-.01,1.69-.04,2.77-.02,1.08-.11,2.12-.25,3.13.77-.1,1.6-.16,2.48-.18.89-.02,1.62-.04,2.2-.04v4.61h-17.5Z"/>
      <path class="cls-3" d="m1122.31,101.36c-.14-.72-.23-1.33-.25-1.84s-.06-1.09-.11-1.76c-1.63,1.63-3.37,2.83-5.22,3.6-1.85.77-3.76,1.15-5.72,1.15-3.26,0-5.77-.89-7.52-2.66-1.75-1.77-2.63-3.96-2.63-6.55,0-2.3.62-4.26,1.87-5.87,1.25-1.61,2.88-2.93,4.9-3.96,2.02-1.03,4.25-1.82,6.7-2.38,2.45-.55,4.87-.85,7.27-.9v-3.96c0-1.39-.16-2.68-.47-3.85-.31-1.18-.88-2.11-1.69-2.81-.82-.7-2.02-1.04-3.6-1.04-1.06.05-2.12.28-3.2.68-1.08.41-1.93,1.04-2.56,1.91.38.43.62.9.72,1.4.1.5.14.95.14,1.33,0,.86-.34,1.76-1.01,2.7-.67.94-1.75,1.38-3.24,1.33-1.3-.05-2.29-.5-2.99-1.37-.7-.86-1.04-1.9-1.04-3.1,0-1.82.66-3.42,1.98-4.79,1.32-1.37,3.11-2.45,5.36-3.24,2.26-.79,4.78-1.19,7.56-1.19,4.13,0,7.3,1.08,9.5,3.24,2.21,2.16,3.29,5.62,3.24,10.37v4.57c0,1.37-.01,2.74-.04,4.1-.02,1.37-.04,2.89-.04,4.57,0,.72-.03,1.62-.07,2.7-.05,1.08-.12,2.15-.22,3.2.86-.1,1.74-.16,2.63-.18.89-.02,1.62-.06,2.2-.11v4.68h-12.46Zm-.79-16.92c-1.44.1-2.86.32-4.25.68-1.39.36-2.64.85-3.74,1.48-1.11.62-1.98,1.4-2.63,2.34-.65.94-.95,2-.9,3.2.05,1.49.53,2.58,1.44,3.28.91.7,1.97,1.04,3.17,1.04,1.39,0,2.65-.29,3.78-.86,1.13-.58,2.17-1.34,3.13-2.3v-8.86Z"/>
      <path class="cls-3" d="m1152.84,102.51c-1.34,0-2.65-.17-3.92-.5-1.27-.34-2.42-.96-3.46-1.87-1.03-.91-1.86-2.27-2.48-4.07-.62-1.8-.94-4.19-.94-7.16l.14-18.58-5.11.07v-5.04c1.44-.05,2.83-.54,4.18-1.48s2.52-2.17,3.53-3.71c1.01-1.54,1.68-3.17,2.02-4.9h4.39l-.07,10.08h10.15v4.61l-10.15.22-.07,18.5c0,1.44.13,2.77.4,4,.26,1.22.74,2.2,1.44,2.92.7.72,1.64,1.08,2.84,1.08.91,0,1.96-.29,3.13-.86,1.18-.58,2.36-1.73,3.56-3.46l2.95,2.66c-1.2,1.82-2.44,3.24-3.71,4.25-1.27,1.01-2.5,1.75-3.67,2.23-1.18.48-2.22.77-3.13.86-.91.1-1.58.14-2.02.14Z"/>
    </g>
  </g>
</svg>